<svg width="428" height="777" viewBox="0 0 428 777" fill="none" xmlns="http://www.w3.org/2000/svg">
<g opacity="0.4">
<mask id="mask0_19_7" style="mask-type:alpha" maskUnits="userSpaceOnUse" x="-80" y="410" width="341" height="496">
<path d="M203.865 905C229.34 874.942 311.449 632.602 212.963 632.602C114.477 632.602 34.6376 550.176 34.6376 448.499C34.6376 346.822 -80 467.285 -80 570.608C-56.3446 784.77 -121.852 905 203.865 905Z" fill="#CDF564"/>
<path d="M212.963 633.066C225.17 633.066 234.541 636.817 241.576 643.413C248.62 650.017 253.359 659.508 256.222 671.049C261.952 694.142 260.14 725.295 254.442 757.449C248.747 789.589 239.181 822.673 229.447 849.6C224.58 863.062 219.673 874.98 215.19 884.467C210.766 893.828 206.771 900.788 203.648 904.536C122.353 904.523 65.5054 897.009 25.5848 882.432C-14.3484 867.85 -37.3339 846.205 -50.9224 817.914C-64.526 789.591 -68.7327 754.568 -71.0072 713.181C-71.6664 701.185 -72.1633 688.656 -72.6809 675.605C-73.9477 643.663 -75.3383 608.597 -79.5361 570.583C-79.5266 519.071 -50.9359 463.247 -22.3441 432.997C-15.199 425.438 -8.06831 419.491 -1.40108 415.61C5.27367 411.725 11.4364 409.937 16.6659 410.614C21.8617 411.286 26.2196 414.402 29.2972 420.524C32.3854 426.667 34.1737 435.822 34.1737 448.499C34.1737 550.419 114.206 633.066 212.963 633.066Z" stroke="#F4F4F4" stroke-opacity="0.23" stroke-width="0.927845"/>
</mask>
<g mask="url(#mask0_19_7)">
<path d="M-10.3718 448.501L-9.03825 449.84L-7.69402 448.501L-9.02755 447.161L-10.3718 448.501ZM-9.03382 448.733L212.963 448.733L212.965 448.269L-9.03197 448.269L-9.03382 448.733Z" fill="#F4F4F4" fill-opacity="0.23"/>
<path d="M-10.3703 467.4L-8.92822 468.622L-7.7012 467.174L-9.14331 465.952L-10.3703 467.4ZM-9.01714 467.518L212.98 448.732L212.942 448.269L-9.05439 467.056L-9.01714 467.518Z" fill="#F4F4F4" fill-opacity="0.23"/>
<path d="M-10.3568 486.298L-8.81758 487.395L-7.71478 485.851L-9.25395 484.753L-10.3568 486.298ZM-8.99798 486.303L212.999 448.731L212.923 448.273L-9.07356 485.845L-8.99798 486.303Z" fill="#F4F4F4" fill-opacity="0.23"/>
<path d="M-10.3348 505.188L-8.71135 506.156L-7.73678 504.528L-9.36018 503.56L-10.3348 505.188ZM-8.97958 505.083L213.017 448.725L212.905 448.275L-9.09196 504.633L-8.97958 505.083Z" fill="#F4F4F4" fill-opacity="0.23"/>
<path d="M-10.3056 524.075L-8.61124 524.914L-7.76596 523.215L-9.4603 522.377L-10.3056 524.075ZM-8.96224 523.865L213.035 448.721L212.888 448.281L-9.1093 523.426L-8.96224 523.865Z" fill="#F4F4F4" fill-opacity="0.23"/>
<path d="M-10.2707 542.953L-8.51845 543.664L-7.80085 541.908L-9.55308 541.197L-10.2707 542.953ZM-8.94617 542.644L213.051 448.714L212.872 448.287L-9.12537 542.217L-8.94617 542.644Z" fill="#F4F4F4" fill-opacity="0.23"/>
<path d="M-10.2707 542.953L-8.51845 543.664L-7.80085 541.908L-9.55308 541.197L-10.2707 542.953ZM-8.94617 542.644L213.051 448.714L212.872 448.287L-9.12537 542.217L-8.94617 542.644Z" fill="#F4F4F4" fill-opacity="0.23"/>
<path d="M-10.2316 561.825L-8.43366 562.412L-7.8399 560.611L-9.63787 560.024L-10.2316 561.825ZM-8.93148 561.425L213.065 448.709L212.857 448.295L-9.14005 561.011L-8.93148 561.425Z" fill="#F4F4F4" fill-opacity="0.23"/>
<path d="M-10.1899 580.687L-8.35707 581.156L-7.88165 579.32L-9.71447 578.852L-10.1899 580.687ZM-8.91821 580.203L213.079 448.701L212.844 448.302L-9.15332 579.804L-8.91821 580.203Z" fill="#F4F4F4" fill-opacity="0.23"/>
<path d="M-10.1467 599.541L-8.28849 599.898L-7.92482 598.037L-9.78304 597.681L-10.1467 599.541ZM-8.90633 598.981L213.091 448.693L212.832 448.309L-9.1652 598.597L-8.90633 598.981Z" fill="#F4F4F4" fill-opacity="0.23"/>
<path d="M-10.1032 618.39L-8.2275 618.641L-7.96837 616.764L-9.84403 616.512L-10.1032 618.39ZM-8.89577 617.761L213.101 448.686L212.821 448.318L-9.17576 617.392L-8.89577 617.761Z" fill="#F4F4F4" fill-opacity="0.23"/>
<path d="M-10.06 637.227L-8.17352 637.382L-8.01149 635.494L-9.89802 635.339L-10.06 637.227ZM-8.88642 636.537L213.111 448.676L212.812 448.323L-9.18511 636.183L-8.88642 636.537Z" fill="#F4F4F4" fill-opacity="0.23"/>
<path d="M-10.018 656.06L-8.12587 656.125L-8.05357 654.232L-9.94566 654.167L-10.018 656.06ZM-8.87817 655.315L213.119 448.669L212.804 448.329L-9.19337 654.976L-8.87817 655.315Z" fill="#F4F4F4" fill-opacity="0.23"/>
<path d="M-9.97732 674.891L-8.08388 674.873L-8.09421 672.979L-9.98765 672.997L-9.97732 674.891ZM-8.87089 674.097L213.126 448.664L212.797 448.339L-9.20064 673.772L-8.87089 674.097Z" fill="#F4F4F4" fill-opacity="0.23"/>
<path d="M-9.9384 693.712L-8.04689 693.618L-8.13314 691.726L-10.0246 691.82L-9.9384 693.712ZM-8.86449 692.874L213.133 448.655L212.79 448.344L-9.20705 692.563L-8.86449 692.874Z" fill="#F4F4F4" fill-opacity="0.23"/>
<path d="M-9.90133 712.532L-8.01429 712.368L-8.1702 710.481L-10.0572 710.644L-9.90133 712.532ZM-8.85884 711.655L213.139 448.65L212.785 448.352L-9.21269 711.357L-8.85884 711.655Z" fill="#F4F4F4" fill-opacity="0.23"/>
<path d="M-9.86619 731.349L-7.98552 731.122L-8.20534 729.241L-10.086 729.469L-9.86619 731.349ZM-8.85386 730.438L213.144 448.647L212.78 448.361L-9.21767 730.152L-8.85386 730.438Z" fill="#F4F4F4" fill-opacity="0.23"/>
<path d="M-9.83298 750.156L-7.96009 749.87L-8.23855 747.998L-10.1114 748.284L-9.83298 750.156ZM-8.84945 749.214L213.148 448.637L212.776 448.362L-9.22208 748.94L-8.84945 749.214Z" fill="#F4F4F4" fill-opacity="0.23"/>
<path d="M-9.80166 768.968L-7.93757 768.628L-8.26987 766.765L-10.134 767.104L-9.80166 768.968ZM-8.84555 767.998L213.152 448.635L212.772 448.371L-9.22598 767.734L-8.84555 767.998Z" fill="#F4F4F4" fill-opacity="0.23"/>
<path d="M-9.77217 787.772L-7.91758 787.382L-8.29937 785.528L-10.154 785.918L-9.77217 787.772ZM-8.84209 786.777L213.156 448.628L212.768 448.374L-9.22944 786.523L-8.84209 786.777Z" fill="#F4F4F4" fill-opacity="0.23"/>
<path d="M-9.74441 806.577L-7.89979 806.142L-8.32712 804.298L-10.1717 804.733L-9.74441 806.577ZM-8.83901 805.559L213.159 448.624L212.765 448.38L-9.23252 805.315L-8.83901 805.559Z" fill="#F4F4F4" fill-opacity="0.23"/>
<path d="M212.962 844.348L214.301 843.003L212.962 841.669L211.623 843.014L212.962 844.348ZM213.194 843.007L213.194 448.5L212.73 448.502L212.73 843.009L213.194 843.007Z" fill="#F4F4F4" fill-opacity="0.23"/>
<path d="M-9.7183 825.376L-7.88391 824.899L-8.35323 823.066L-10.1876 823.543L-9.7183 825.376ZM-8.83626 824.339L213.16 448.617L212.761 448.382L-9.23527 824.104L-8.83626 824.339Z" fill="#F4F4F4" fill-opacity="0.23"/>
<path d="M-9.69374 844.178L-7.86971 843.662L-8.37779 841.839L-10.2018 842.355L-9.69374 844.178ZM-8.8338 843.122L213.163 448.614L212.759 448.388L-9.23773 842.895L-8.8338 843.122Z" fill="#F4F4F4" fill-opacity="0.23"/>
<path d="M10.3706 844.203L12.1731 843.615L11.5934 841.814L9.79086 842.401L10.3706 844.203ZM11.1883 843.114L213.169 448.606L212.756 448.396L10.7757 842.903L11.1883 843.114Z" fill="#F4F4F4" fill-opacity="0.23"/>
<path d="M30.4361 844.227L32.2133 843.566L31.5598 841.79L29.7827 842.451L30.4361 844.227ZM31.2085 843.105L213.173 448.597L212.752 448.404L30.7875 842.912L31.2085 843.105Z" fill="#F4F4F4" fill-opacity="0.23"/>
<path d="M48.6796 844.247L50.43 843.518L49.7081 841.77L47.9577 842.499L48.6796 844.247ZM49.408 843.097L213.176 448.589L212.748 448.412L48.9797 842.92L49.408 843.097Z" fill="#F4F4F4" fill-opacity="0.23"/>
<path d="M66.9254 844.267L68.6455 843.468L67.854 841.75L66.1339 842.549L66.9254 844.267ZM67.6072 843.088L213.179 448.58L212.743 448.421L67.1722 842.929L67.6072 843.088Z" fill="#F4F4F4" fill-opacity="0.23"/>
<path d="M85.1753 844.285L86.8613 843.416L85.9994 841.732L84.3135 842.601L85.1753 844.285ZM85.808 843.079L213.183 448.571L212.742 448.43L85.3667 842.938L85.808 843.079Z" fill="#F4F4F4" fill-opacity="0.23"/>
<path d="M103.426 844.301L105.073 843.361L104.141 841.716L102.493 842.656L103.426 844.301ZM104.007 843.07L213.185 448.562L212.738 448.44L103.56 842.947L104.007 843.07Z" fill="#F4F4F4" fill-opacity="0.23"/>
<path d="M121.678 844.315L123.284 843.305L122.28 841.702L120.675 842.712L121.678 844.315ZM122.205 843.06L213.187 448.552L212.735 448.449L121.753 842.957L122.205 843.06Z" fill="#F4F4F4" fill-opacity="0.23"/>
<path d="M139.934 844.327L141.493 843.246L140.42 841.69L138.86 842.77L139.934 844.327ZM140.405 843.05L213.19 448.542L212.734 448.459L139.949 842.967L140.405 843.05Z" fill="#F4F4F4" fill-opacity="0.23"/>
<path d="M158.189 844.336L159.699 843.187L158.556 841.681L157.046 842.83L158.189 844.336ZM158.602 843.039L213.191 448.531L212.732 448.469L158.143 842.978L158.602 843.039Z" fill="#F4F4F4" fill-opacity="0.23"/>
<path d="M176.447 844.343L177.903 843.126L176.693 841.674L175.237 842.891L176.447 844.343ZM176.801 843.029L213.194 448.521L212.732 448.48L176.339 842.988L176.801 843.029Z" fill="#F4F4F4" fill-opacity="0.23"/>
<path d="M194.704 844.347L196.104 843.065L194.828 841.67L193.429 842.952L194.704 844.347ZM194.998 843.018L213.194 448.51L212.731 448.49L194.534 842.999L194.998 843.018Z" fill="#F4F4F4" fill-opacity="0.23"/>
</g>
<mask id="mask1_19_7" style="mask-type:alpha" maskUnits="userSpaceOnUse" x="167" y="-8" width="341" height="495">
<path d="M223.794 -7.99985C198.319 22.0578 116.21 264.398 214.696 264.398C313.182 264.398 393.021 346.824 393.021 448.501C393.021 550.179 507.659 429.715 507.659 326.392C484.003 112.231 549.511 -7.99985 223.794 -7.99985Z" fill="#CDF564"/>
<path d="M214.696 263.934C202.488 263.934 193.117 260.183 186.083 253.588C179.039 246.984 174.3 237.492 171.436 225.951C165.707 202.858 167.519 171.705 173.216 139.552C178.911 107.411 188.478 74.3269 198.212 47.4006C203.079 33.9379 207.986 22.0198 212.469 12.5328C216.893 3.17187 220.888 -3.78748 224.01 -7.53589C305.305 -7.52258 362.153 -0.00891113 402.074 14.5682C442.007 29.15 464.993 50.795 478.581 79.0865C492.185 107.409 496.391 142.432 498.666 183.819C499.325 195.815 499.822 208.344 500.34 221.396C501.606 253.337 502.997 288.404 507.195 326.417C507.185 377.929 478.595 433.753 450.003 464.003C442.858 471.563 435.727 477.509 429.06 481.39C422.385 485.275 416.222 487.063 410.993 486.387C405.797 485.714 401.439 482.598 398.361 476.476C395.273 470.334 393.485 461.178 393.485 448.501C393.485 346.582 313.452 263.934 214.696 263.934Z" stroke="#F4F4F4" stroke-opacity="0.23" stroke-width="0.927845"/>
</mask>
<g mask="url(#mask1_19_7)">
<path d="M438.033 448.502L436.699 447.162L435.355 448.502L436.688 449.841L438.033 448.502ZM436.695 448.27L214.698 448.27L214.696 448.734L436.693 448.734L436.695 448.27Z" fill="#F4F4F4" fill-opacity="0.23"/>
<path d="M438.028 429.603L436.585 428.381L435.358 429.829L436.801 431.05L438.028 429.603ZM436.674 429.484L214.678 448.271L214.715 448.733L436.712 429.947L436.674 429.484Z" fill="#F4F4F4" fill-opacity="0.23"/>
<path d="M438.014 410.705L436.475 409.608L435.372 411.152L436.911 412.249L438.014 410.705ZM436.655 410.7L214.658 448.272L214.734 448.729L436.731 411.157L436.655 410.7Z" fill="#F4F4F4" fill-opacity="0.23"/>
<path d="M437.992 391.815L436.369 390.846L435.394 392.474L437.017 393.443L437.992 391.815ZM436.637 391.919L214.64 448.278L214.752 448.728L436.749 392.369L436.637 391.919Z" fill="#F4F4F4" fill-opacity="0.23"/>
<path d="M437.963 372.927L436.268 372.088L435.423 373.787L437.118 374.626L437.963 372.927ZM436.619 373.137L214.623 448.282L214.77 448.721L436.767 373.577L436.619 373.137Z" fill="#F4F4F4" fill-opacity="0.23"/>
<path d="M437.928 354.049L436.176 353.338L435.458 355.094L437.21 355.805L437.928 354.049ZM436.603 354.358L214.606 448.288L214.786 448.716L436.783 354.785L436.603 354.358Z" fill="#F4F4F4" fill-opacity="0.23"/>
<path d="M437.928 354.049L436.176 353.338L435.458 355.094L437.21 355.805L437.928 354.049ZM436.603 354.358L214.606 448.288L214.786 448.716L436.783 354.785L436.603 354.358Z" fill="#F4F4F4" fill-opacity="0.23"/>
<path d="M437.889 335.177L436.091 334.59L435.497 336.391L437.295 336.978L437.889 335.177ZM436.589 335.577L214.592 448.294L214.8 448.707L436.797 335.991L436.589 335.577Z" fill="#F4F4F4" fill-opacity="0.23"/>
<path d="M437.847 316.315L436.014 315.847L435.539 317.682L437.372 318.151L437.847 316.315ZM436.575 316.799L214.578 448.302L214.813 448.701L436.811 317.198L436.575 316.799Z" fill="#F4F4F4" fill-opacity="0.23"/>
<path d="M437.804 297.461L435.946 297.105L435.582 298.965L437.44 299.322L437.804 297.461ZM436.564 298.021L214.566 448.31L214.825 448.694L436.822 298.405L436.564 298.021Z" fill="#F4F4F4" fill-opacity="0.23"/>
<path d="M437.76 278.613L435.885 278.361L435.626 280.239L437.501 280.491L437.76 278.613ZM436.553 279.241L214.556 448.316L214.836 448.685L436.833 279.61L436.553 279.241Z" fill="#F4F4F4" fill-opacity="0.23"/>
<path d="M437.717 259.775L435.831 259.621L435.669 261.509L437.555 261.663L437.717 259.775ZM436.544 260.465L214.546 448.326L214.845 448.68L436.842 260.819L436.544 260.465Z" fill="#F4F4F4" fill-opacity="0.23"/>
<path d="M437.675 240.942L435.783 240.877L435.711 242.771L437.603 242.836L437.675 240.942ZM436.535 241.687L214.538 448.334L214.853 448.673L436.851 242.026L436.535 241.687Z" fill="#F4F4F4" fill-opacity="0.23"/>
<path d="M437.635 222.111L435.741 222.129L435.751 224.024L437.645 224.006L437.635 222.111ZM436.528 222.905L214.531 448.338L214.861 448.663L436.858 223.23L436.528 222.905Z" fill="#F4F4F4" fill-opacity="0.23"/>
<path d="M437.596 203.291L435.704 203.385L435.79 205.277L437.682 205.183L437.596 203.291ZM436.522 204.128L214.524 448.347L214.867 448.659L436.864 204.439L436.522 204.128Z" fill="#F4F4F4" fill-opacity="0.23"/>
<path d="M437.559 184.471L435.672 184.634L435.827 186.522L437.714 186.358L437.559 184.471ZM436.516 185.347L214.518 448.352L214.872 448.651L436.87 185.646L436.516 185.347Z" fill="#F4F4F4" fill-opacity="0.23"/>
<path d="M437.523 165.653L435.643 165.881L435.863 167.761L437.743 167.534L437.523 165.653ZM436.511 166.564L214.513 448.355L214.877 448.641L436.875 166.85L436.511 166.564Z" fill="#F4F4F4" fill-opacity="0.23"/>
<path d="M437.49 146.846L435.617 147.132L435.896 149.005L437.769 148.719L437.49 146.846ZM436.507 147.788L214.509 448.365L214.882 448.64L436.879 148.063L436.507 147.788Z" fill="#F4F4F4" fill-opacity="0.23"/>
<path d="M437.459 128.034L435.595 128.374L435.927 130.238L437.791 129.898L437.459 128.034ZM436.503 129.004L214.505 448.367L214.885 448.631L436.883 129.268L436.503 129.004Z" fill="#F4F4F4" fill-opacity="0.23"/>
<path d="M437.429 109.231L435.575 109.62L435.957 111.474L437.811 111.085L437.429 109.231ZM436.499 110.225L214.502 448.375L214.889 448.628L436.887 110.479L436.499 110.225Z" fill="#F4F4F4" fill-opacity="0.23"/>
<path d="M437.402 90.4275L435.557 90.8624L435.984 92.7063L437.829 92.2714L437.402 90.4275ZM436.496 91.4449L214.498 448.38L214.892 448.624L436.89 91.6889L436.496 91.4449Z" fill="#F4F4F4" fill-opacity="0.23"/>
<path d="M214.697 90.2273L213.358 91.5722L214.697 92.9065L216.036 91.5615L214.697 90.2273ZM214.465 91.5678L214.465 448.503L214.929 448.501L214.929 91.566L214.465 91.5678Z" fill="#F4F4F4" fill-opacity="0.23"/>
<path d="M417.34 90.3992L415.514 90.9104L416.018 92.7346L417.843 92.2233L417.34 90.3992ZM416.477 91.4532L214.497 448.389L214.9 448.616L416.881 91.6806L416.477 91.4532Z" fill="#F4F4F4" fill-opacity="0.23"/>
<path d="M397.272 90.3717L395.471 90.962L396.054 92.7621L397.855 92.1718L397.272 90.3717ZM396.456 91.4621L214.492 448.398L214.905 448.607L396.869 91.6717L396.456 91.4621Z" fill="#F4F4F4" fill-opacity="0.23"/>
<path d="M379.023 90.3476L377.247 91.0121L377.904 92.7862L379.68 92.1217L379.023 90.3476ZM378.253 91.4708L214.485 448.406L214.906 448.599L378.674 91.663L378.253 91.4708Z" fill="#F4F4F4" fill-opacity="0.23"/>
<path d="M360.774 90.3249L359.028 91.0651L359.761 92.8089L361.507 92.0687L360.774 90.3249ZM360.053 91.48L214.482 448.416L214.911 448.589L360.482 91.6538L360.053 91.48Z" fill="#F4F4F4" fill-opacity="0.23"/>
<path d="M342.521 90.3037L340.809 91.1209L341.619 92.8301L343.331 92.0128L342.521 90.3037ZM341.851 91.4897L214.477 448.425L214.913 448.58L342.288 91.6441L341.851 91.4897Z" fill="#F4F4F4" fill-opacity="0.23"/>
<path d="M324.268 90.2845L322.596 91.1796L323.484 92.8492L325.156 91.9542L324.268 90.2845ZM323.654 91.4998L214.476 448.436L214.919 448.57L324.097 91.634L323.654 91.4998Z" fill="#F4F4F4" fill-opacity="0.23"/>
<path d="M306.011 90.2676L304.383 91.2407L305.349 92.8662L306.977 91.8931L306.011 90.2676ZM305.455 91.5104L214.473 448.446L214.923 448.559L305.905 91.6234L305.455 91.5104Z" fill="#F4F4F4" fill-opacity="0.23"/>
<path d="M287.75 90.2533L286.17 91.3041L287.214 92.8804L288.794 91.8296L287.75 90.2533ZM287.255 91.5214L214.47 448.457L214.924 448.548L287.709 91.6124L287.255 91.5214Z" fill="#F4F4F4" fill-opacity="0.23"/>
<path d="M269.487 90.242L267.961 91.3695L269.082 92.8918L270.608 91.7643L269.487 90.242ZM269.055 91.5327L214.466 448.469L214.925 448.537L269.514 91.6011L269.055 91.5327Z" fill="#F4F4F4" fill-opacity="0.23"/>
<path d="M251.225 90.2337L249.757 91.4362L250.953 92.9001L252.421 91.6976L251.225 90.2337ZM250.858 91.5443L214.465 448.48L214.927 448.526L251.319 91.5895L250.858 91.5443Z" fill="#F4F4F4" fill-opacity="0.23"/>
<path d="M232.961 90.2288L231.556 91.504L232.825 92.905L234.23 91.6298L232.961 90.2288ZM232.661 91.556L214.465 448.492L214.928 448.514L233.124 91.5778L232.661 91.556Z" fill="#F4F4F4" fill-opacity="0.23"/>
</g>
<mask id="mask2_19_7" style="mask-type:alpha" maskUnits="userSpaceOnUse" x="-80" y="-8" width="341" height="495">
<path d="M203.938 -7.99967C229.42 22.058 311.55 264.398 213.039 264.398C114.527 264.398 34.6672 346.824 34.6672 448.501C34.6672 550.179 -80 429.715 -80 326.392C-56.3385 112.231 -121.863 -7.99967 203.938 -7.99967Z" fill="#CDF564"/>
<path d="M213.039 263.934C225.249 263.934 234.623 260.183 241.659 253.588C248.705 246.984 253.445 237.492 256.309 225.951C262.041 202.859 260.228 171.705 254.529 139.552C248.833 107.412 239.264 74.3271 229.527 47.4008C224.659 33.9381 219.751 22.0201 215.266 12.533C210.841 3.17206 206.845 -3.78729 203.722 -7.53571C122.406 -7.52243 65.543 -0.00872803 25.612 14.5684C-14.3316 29.1502 -37.323 50.7953 -50.915 79.0867C-64.5222 107.41 -68.7299 142.433 -71.005 183.82C-71.6644 195.815 -72.1614 208.345 -72.6791 221.396C-73.9462 253.337 -75.3372 288.404 -79.5361 326.418C-79.5266 377.929 -50.9285 433.753 -22.3293 464.003C-15.1824 471.563 -8.04983 477.509 -1.38086 481.39C5.29562 485.276 11.46 487.063 16.691 486.387C21.8882 485.715 26.2473 482.598 29.3256 476.477C32.4146 470.334 34.2033 461.178 34.2033 448.501C34.2033 346.582 114.257 263.934 213.039 263.934Z" stroke="#F4F4F4" stroke-opacity="0.23" stroke-width="0.927845"/>
</mask>
<g mask="url(#mask2_19_7)">
<path d="M-10.3506 429.596L-8.90849 428.374L-7.68149 429.822L-9.12361 431.044L-10.3506 429.596ZM-8.99742 429.478L213.057 448.264L213.019 448.727L-9.03468 429.94L-8.99742 429.478Z" fill="#F4F4F4" fill-opacity="0.23"/>
<path d="M-10.337 410.704L-8.79788 409.607L-7.69506 411.151L-9.23422 412.248L-10.337 410.704ZM-8.97826 410.699L213.076 448.271L213 448.728L-9.05384 411.156L-8.97826 410.699Z" fill="#F4F4F4" fill-opacity="0.23"/>
<path d="M-10.3151 391.81L-8.69167 390.841L-7.71705 392.469L-9.34043 393.438L-10.3151 391.81ZM-8.95987 391.915L213.094 448.273L212.982 448.723L-9.07224 392.365L-8.95987 391.915Z" fill="#F4F4F4" fill-opacity="0.23"/>
<path d="M-10.2859 372.925L-8.59158 372.086L-7.74623 373.784L-9.44052 374.623L-10.2859 372.925ZM-8.94253 373.135L213.112 448.279L212.965 448.719L-9.08957 373.574L-8.94253 373.135Z" fill="#F4F4F4" fill-opacity="0.23"/>
<path d="M-10.251 354.045L-8.49882 353.334L-7.7811 355.089L-9.53329 355.801L-10.251 354.045ZM-8.92646 354.353L213.128 448.284L212.949 448.711L-9.10564 354.781L-8.92646 354.353Z" fill="#F4F4F4" fill-opacity="0.23"/>
<path d="M-10.251 354.045L-8.49882 353.334L-7.7811 355.089L-9.53329 355.801L-10.251 354.045ZM-8.92646 354.353L213.128 448.284L212.949 448.711L-9.10564 354.781L-8.92646 354.353Z" fill="#F4F4F4" fill-opacity="0.23"/>
<path d="M-10.212 335.172L-8.41404 334.585L-7.82014 336.387L-9.61806 336.974L-10.212 335.172ZM-8.91178 335.573L213.143 448.289L212.934 448.703L-9.12032 335.986L-8.91178 335.573Z" fill="#F4F4F4" fill-opacity="0.23"/>
<path d="M-10.1702 316.311L-8.33745 315.842L-7.86187 317.678L-9.69465 318.146L-10.1702 316.311ZM-8.89852 316.795L213.156 448.297L212.921 448.696L-9.13359 317.194L-8.89852 316.795Z" fill="#F4F4F4" fill-opacity="0.23"/>
<path d="M-10.1271 297.457L-8.26888 297.1L-7.90503 298.961L-9.76322 299.317L-10.1271 297.457ZM-8.88664 298.017L213.168 448.305L212.909 448.689L-9.14547 298.401L-8.88664 298.017Z" fill="#F4F4F4" fill-opacity="0.23"/>
<path d="M-10.0835 278.612L-8.2079 278.36L-7.94857 280.238L-9.82421 280.49L-10.0835 278.612ZM-8.87608 279.24L213.179 448.315L212.899 448.684L-9.15603 279.609L-8.87608 279.24Z" fill="#F4F4F4" fill-opacity="0.23"/>
<path d="M-10.0404 259.771L-8.15391 259.616L-7.99168 261.504L-9.87819 261.659L-10.0404 259.771ZM-8.86673 260.461L213.188 448.321L212.889 448.675L-9.16538 260.814L-8.86673 260.461Z" fill="#F4F4F4" fill-opacity="0.23"/>
<path d="M-9.99835 240.936L-8.10626 240.871L-8.03375 242.764L-9.92584 242.829L-9.99835 240.936ZM-8.85847 241.681L213.196 448.328L212.881 448.667L-9.17363 242.02L-8.85847 241.681Z" fill="#F4F4F4" fill-opacity="0.23"/>
<path d="M-9.95772 222.109L-8.06427 222.126L-8.07439 224.021L-9.96784 224.003L-9.95772 222.109ZM-8.8512 222.902L213.204 448.335L212.874 448.66L-9.18091 223.227L-8.8512 222.902Z" fill="#F4F4F4" fill-opacity="0.23"/>
<path d="M-9.9188 203.285L-8.02727 203.378L-8.11331 205.27L-10.0048 205.177L-9.9188 203.285ZM-8.84479 204.122L213.21 448.341L212.868 448.652L-9.18731 204.433L-8.84479 204.122Z" fill="#F4F4F4" fill-opacity="0.23"/>
<path d="M-9.88173 184.47L-7.99467 184.633L-8.15037 186.521L-10.0374 186.357L-9.88173 184.47ZM-8.83914 185.346L213.216 448.351L212.862 448.65L-9.19296 185.645L-8.83914 185.346Z" fill="#F4F4F4" fill-opacity="0.23"/>
<path d="M-9.8466 165.654L-7.9659 165.881L-8.18551 167.762L-10.0662 167.535L-9.8466 165.654ZM-8.83416 166.565L213.221 448.356L212.857 448.642L-9.19794 166.851L-8.83416 166.565Z" fill="#F4F4F4" fill-opacity="0.23"/>
<path d="M-9.81339 146.843L-7.94047 147.129L-8.21872 149.002L-10.0916 148.716L-9.81339 146.843ZM-8.82976 147.785L213.225 448.362L212.853 448.637L-9.20235 148.06L-8.82976 147.785Z" fill="#F4F4F4" fill-opacity="0.23"/>
<path d="M-9.78207 128.035L-7.91794 128.375L-8.25004 130.239L-10.1142 129.899L-9.78207 128.035ZM-8.82585 129.005L213.229 448.368L212.849 448.632L-9.20625 129.269L-8.82585 129.005Z" fill="#F4F4F4" fill-opacity="0.23"/>
<path d="M-9.75257 109.228L-7.89794 109.617L-8.27953 111.471L-10.1342 111.082L-9.75257 109.228ZM-8.82239 110.223L213.233 448.372L212.846 448.626L-9.20971 110.476L-8.82239 110.223Z" fill="#F4F4F4" fill-opacity="0.23"/>
<path d="M-9.72482 90.4248L-7.88015 90.8595L-8.30729 92.7034L-10.152 92.2687L-9.72482 90.4248ZM-8.81931 91.442L213.236 448.377L212.842 448.621L-9.2128 91.6861L-8.81931 91.442Z" fill="#F4F4F4" fill-opacity="0.23"/>
<path d="M10.3462 90.3965L12.1716 90.9075L11.668 92.7317L9.84273 92.2207L10.3462 90.3965ZM11.2088 91.4504L213.242 448.386L212.838 448.613L10.8055 91.6778L11.2088 91.4504Z" fill="#F4F4F4" fill-opacity="0.23"/>
<path d="M30.4173 90.3689L32.2189 90.9591L31.6362 92.7592L29.8346 92.1691L30.4173 90.3689ZM31.2332 91.4593L213.245 448.395L212.832 448.604L30.8202 91.6689L31.2332 91.4593Z" fill="#F4F4F4" fill-opacity="0.23"/>
<path d="M48.6667 90.3449L50.4426 91.0091L49.7857 92.7833L48.0098 92.1191L48.6667 90.3449ZM49.4369 91.468L213.247 448.404L212.826 448.596L49.0155 91.6602L49.4369 91.468Z" fill="#F4F4F4" fill-opacity="0.23"/>
<path d="M66.9208 90.3221L68.6668 91.0621L67.9341 92.806L66.1881 92.0661L66.9208 90.3221ZM67.6421 91.4771L213.251 448.413L212.822 448.587L67.2128 91.651L67.6421 91.4771Z" fill="#F4F4F4" fill-opacity="0.23"/>
<path d="M85.1797 90.301L86.8912 91.118L86.0814 92.8272L84.3698 92.0102L85.1797 90.301ZM85.8489 91.4868L213.257 448.423L212.82 448.577L85.4122 91.6414L85.8489 91.4868Z" fill="#F4F4F4" fill-opacity="0.23"/>
<path d="M103.441 90.2818L105.114 91.1766L104.226 92.8464L102.553 91.9515L103.441 90.2818ZM104.055 91.497L213.262 448.433L212.818 448.567L103.612 91.6312L104.055 91.497Z" fill="#F4F4F4" fill-opacity="0.23"/>
<path d="M121.7 90.2649L123.329 91.2378L122.363 92.8633L120.734 91.8904L121.7 90.2649ZM122.256 91.5076L213.261 448.443L212.812 448.556L121.807 91.6206L122.256 91.5076Z" fill="#F4F4F4" fill-opacity="0.23"/>
<path d="M139.966 90.2506L141.546 91.3012L140.502 92.8776L138.923 91.8269L139.966 90.2506ZM140.462 91.5186L213.266 448.454L212.811 448.545L140.007 91.6096L140.462 91.5186Z" fill="#F4F4F4" fill-opacity="0.23"/>
<path d="M158.233 90.2392L159.759 91.3666L158.638 92.889L157.112 91.7616L158.233 90.2392ZM158.665 91.5299L213.268 448.466L212.81 448.534L158.206 91.5983L158.665 91.5299Z" fill="#F4F4F4" fill-opacity="0.23"/>
<path d="M176.501 90.2309L177.969 91.4333L176.773 92.8973L175.305 91.6948L176.501 90.2309ZM176.868 91.5414L213.27 448.477L212.808 448.523L176.406 91.5867L176.868 91.5414Z" fill="#F4F4F4" fill-opacity="0.23"/>
<path d="M194.77 90.226L196.175 91.5011L194.906 92.9022L193.501 91.627L194.77 90.226ZM195.07 91.5532L213.271 448.489L212.807 448.511L194.607 91.575L195.07 91.5532Z" fill="#F4F4F4" fill-opacity="0.23"/>
</g>
<mask id="mask3_19_7" style="mask-type:alpha" maskUnits="userSpaceOnUse" x="167" y="409" width="341" height="496">
<path d="M223.806 904.041C198.325 873.983 116.194 631.643 214.706 631.643C313.217 631.643 393.077 549.217 393.077 447.54C393.077 345.862 507.744 466.326 507.744 569.649C484.083 783.81 549.607 904.041 223.806 904.041Z" fill="#CDF564"/>
<path d="M214.706 632.107C202.495 632.107 193.121 635.858 186.085 642.454C179.039 649.058 174.299 658.549 171.435 670.09C165.703 693.183 167.516 724.336 173.215 756.49C178.912 788.63 188.481 821.714 198.217 848.641C203.085 862.103 207.994 874.021 212.478 883.508C216.903 892.869 220.899 899.829 224.022 903.577C305.338 903.564 362.201 896.05 402.132 881.473C442.076 866.891 465.067 845.246 478.659 816.955C492.266 788.632 496.474 753.609 498.749 712.222C499.409 700.226 499.906 687.697 500.423 674.646C501.69 642.704 503.081 607.638 507.28 569.624C507.271 518.112 478.673 462.288 450.073 432.038C442.926 424.479 435.794 418.532 429.125 414.651C422.449 410.766 416.284 408.978 411.053 409.655C405.856 410.327 401.497 413.443 398.418 419.565C395.33 425.708 393.541 434.863 393.541 447.54C393.541 549.46 313.487 632.107 214.706 632.107Z" stroke="#F4F4F4" stroke-opacity="0.23" stroke-width="0.927845"/>
</mask>
<g mask="url(#mask3_19_7)">
<path d="M438.095 466.443L436.653 467.665L435.426 466.217L436.868 464.995L438.095 466.443ZM436.742 466.561L214.688 447.775L214.725 447.313L436.78 466.099L436.742 466.561Z" fill="#F4F4F4" fill-opacity="0.23"/>
<path d="M438.082 485.337L436.543 486.435L435.44 484.89L436.979 483.793L438.082 485.337ZM436.723 485.343L214.669 447.77L214.744 447.313L436.799 484.885L436.723 485.343Z" fill="#F4F4F4" fill-opacity="0.23"/>
<path d="M438.06 504.233L436.437 505.202L435.462 503.574L437.085 502.605L438.06 504.233ZM436.705 504.128L214.65 447.77L214.763 447.32L436.817 503.678L436.705 504.128Z" fill="#F4F4F4" fill-opacity="0.23"/>
<path d="M438.031 523.116L436.336 523.956L435.491 522.257L437.185 521.418L438.031 523.116ZM436.687 522.907L214.633 447.762L214.78 447.323L436.834 522.467L436.687 522.907Z" fill="#F4F4F4" fill-opacity="0.23"/>
<path d="M437.996 541.998L436.244 542.709L435.526 540.954L437.278 540.242L437.996 541.998ZM436.671 541.69L214.617 447.759L214.796 447.332L436.85 541.262L436.671 541.69Z" fill="#F4F4F4" fill-opacity="0.23"/>
<path d="M437.996 541.998L436.244 542.709L435.526 540.954L437.278 540.242L437.996 541.998ZM436.671 541.69L214.617 447.759L214.796 447.332L436.85 541.262L436.671 541.69Z" fill="#F4F4F4" fill-opacity="0.23"/>
<path d="M437.957 560.869L436.159 561.456L435.565 559.655L437.363 559.067L437.957 560.869ZM436.657 560.468L214.602 447.752L214.811 447.338L436.865 560.055L436.657 560.468Z" fill="#F4F4F4" fill-opacity="0.23"/>
<path d="M437.915 579.729L436.082 580.197L435.607 578.362L437.439 577.893L437.915 579.729ZM436.643 579.245L214.589 447.742L214.824 447.343L436.878 578.846L436.643 579.245Z" fill="#F4F4F4" fill-opacity="0.23"/>
<path d="M437.872 598.585L436.014 598.941L435.65 597.081L437.508 596.724L437.872 598.585ZM436.631 598.025L214.577 447.736L214.836 447.352L436.89 597.641L436.631 598.025Z" fill="#F4F4F4" fill-opacity="0.23"/>
<path d="M437.828 617.429L435.953 617.681L435.693 615.803L437.569 615.551L437.828 617.429ZM436.621 616.801L214.566 447.726L214.846 447.357L436.901 616.432L436.621 616.801Z" fill="#F4F4F4" fill-opacity="0.23"/>
<path d="M437.785 636.27L435.899 636.425L435.737 634.537L437.623 634.382L437.785 636.27ZM436.612 635.581L214.557 447.72L214.856 447.366L436.91 635.227L436.612 635.581Z" fill="#F4F4F4" fill-opacity="0.23"/>
<path d="M437.743 655.107L435.851 655.172L435.779 653.279L437.671 653.214L437.743 655.107ZM436.603 654.362L214.549 447.715L214.864 447.376L436.918 654.023L436.603 654.362Z" fill="#F4F4F4" fill-opacity="0.23"/>
<path d="M437.703 673.931L435.809 673.913L435.819 672.019L437.713 672.036L437.703 673.931ZM436.596 673.137L214.541 447.704L214.871 447.379L436.926 672.812L436.596 673.137Z" fill="#F4F4F4" fill-opacity="0.23"/>
<path d="M437.664 692.755L435.772 692.661L435.858 690.769L437.75 690.863L437.664 692.755ZM436.59 691.918L214.535 447.699L214.877 447.387L436.932 691.606L436.59 691.918Z" fill="#F4F4F4" fill-opacity="0.23"/>
<path d="M437.627 711.571L435.739 711.408L435.895 709.521L437.782 709.684L437.627 711.571ZM436.584 710.695L214.529 447.69L214.883 447.391L436.938 710.397L436.584 710.695Z" fill="#F4F4F4" fill-opacity="0.23"/>
<path d="M437.591 730.387L435.711 730.16L435.93 728.279L437.811 728.506L437.591 730.387ZM436.579 729.476L214.524 447.685L214.888 447.399L436.943 729.19L436.579 729.476Z" fill="#F4F4F4" fill-opacity="0.23"/>
<path d="M437.558 749.2L435.685 748.914L435.964 747.041L437.836 747.327L437.558 749.2ZM436.575 748.258L214.519 447.681L214.892 447.406L436.947 747.983L436.575 748.258Z" fill="#F4F4F4" fill-opacity="0.23"/>
<path d="M437.527 768.008L435.663 767.668L435.995 765.804L437.859 766.144L437.527 768.008ZM436.571 767.038L214.515 447.675L214.896 447.411L436.951 766.774L436.571 767.038Z" fill="#F4F4F4" fill-opacity="0.23"/>
<path d="M437.497 786.815L435.643 786.426L436.024 784.572L437.879 784.961L437.497 786.815ZM436.567 785.82L214.512 447.671L214.899 447.417L436.955 785.566L436.567 785.82Z" fill="#F4F4F4" fill-opacity="0.23"/>
<path d="M437.47 805.616L435.625 805.182L436.052 803.338L437.897 803.772L437.47 805.616ZM436.564 804.599L214.509 447.664L214.902 447.42L436.958 804.355L436.564 804.599Z" fill="#F4F4F4" fill-opacity="0.23"/>
<path d="M437.444 824.419L435.609 823.943L436.078 822.109L437.913 822.586L437.444 824.419ZM436.561 823.382L214.507 447.66L214.906 447.425L436.96 823.147L436.561 823.382Z" fill="#F4F4F4" fill-opacity="0.23"/>
<path d="M437.419 843.219L435.595 842.704L436.103 840.881L437.927 841.396L437.419 843.219ZM436.559 842.163L214.505 447.656L214.909 447.429L436.963 841.937L436.559 842.163Z" fill="#F4F4F4" fill-opacity="0.23"/>
<path d="M417.351 843.244L415.548 842.657L416.128 840.856L417.931 841.443L417.351 843.244ZM416.533 842.155L214.5 447.648L214.913 447.437L416.946 841.945L416.533 842.155Z" fill="#F4F4F4" fill-opacity="0.23"/>
<path d="M397.278 843.268L395.501 842.607L396.154 840.832L397.932 841.493L397.278 843.268ZM396.506 842.147L214.494 447.639L214.915 447.446L396.927 841.953L396.506 842.147Z" fill="#F4F4F4" fill-opacity="0.23"/>
<path d="M379.031 843.289L377.281 842.56L378.002 840.811L379.753 841.54L379.031 843.289ZM378.303 842.138L214.493 447.631L214.921 447.454L378.731 841.962L378.303 842.138Z" fill="#F4F4F4" fill-opacity="0.23"/>
<path d="M360.782 843.308L359.062 842.51L359.853 840.792L361.573 841.59L360.782 843.308ZM360.1 842.13L214.491 447.622L214.926 447.463L360.535 841.97L360.1 842.13Z" fill="#F4F4F4" fill-opacity="0.23"/>
<path d="M342.526 843.326L340.84 842.457L341.702 840.774L343.388 841.643L342.526 843.326ZM341.894 842.121L214.486 447.613L214.927 447.472L342.335 841.98L341.894 842.121Z" fill="#F4F4F4" fill-opacity="0.23"/>
<path d="M324.269 843.342L322.621 842.403L323.553 840.758L325.201 841.697L324.269 843.342ZM323.688 842.111L214.481 447.603L214.928 447.481L324.135 841.989L323.688 842.111Z" fill="#F4F4F4" fill-opacity="0.23"/>
<path d="M306.015 843.356L304.409 842.346L305.412 840.744L307.018 841.754L306.015 843.356ZM305.488 842.101L214.482 447.594L214.934 447.491L305.94 841.999L305.488 842.101Z" fill="#F4F4F4" fill-opacity="0.23"/>
<path d="M287.752 843.368L286.192 842.288L287.265 840.732L288.825 841.812L287.752 843.368ZM287.281 842.091L214.476 447.583L214.932 447.501L287.737 842.009L287.281 842.091Z" fill="#F4F4F4" fill-opacity="0.23"/>
<path d="M269.497 843.378L267.987 842.229L269.129 840.722L270.639 841.871L269.497 843.378ZM269.083 842.081L214.48 447.573L214.939 447.511L269.543 842.019L269.083 842.081Z" fill="#F4F4F4" fill-opacity="0.23"/>
<path d="M251.231 843.384L249.775 842.168L250.985 840.716L252.441 841.932L251.231 843.384ZM250.877 842.07L214.475 447.562L214.937 447.522L251.339 842.03L250.877 842.07Z" fill="#F4F4F4" fill-opacity="0.23"/>
<path d="M232.968 843.388L231.569 842.107L232.845 840.712L234.244 841.994L232.968 843.388ZM232.675 842.06L214.474 447.552L214.937 447.532L233.138 842.04L232.675 842.06Z" fill="#F4F4F4" fill-opacity="0.23"/>
</g>
</g>
</svg>
