<svg width="153" height="96" viewBox="0 0 153 96" fill="none" xmlns="http://www.w3.org/2000/svg">
<mask id="path-1-outside-1_19_435" maskUnits="userSpaceOnUse" x="-1" y="0" width="154" height="96" fill="black">
<rect fill="white" x="-1" width="154" height="96"/>
<path d="M8.01305 22V6.04758H1.69227V0.930762H20.173V6.04758H13.8522V22H8.01305ZM24.843 22V0.930762H34.8058C38.0264 0.930762 40.2537 1.77353 41.6683 3.21828C42.9024 4.42224 43.5345 6.04758 43.5345 8.1244V8.1846C43.5345 11.4052 41.8188 13.5422 39.2002 14.6559L44.2267 22H37.4846L33.2406 15.619H30.6822V22H24.843ZM30.6822 11.044H34.5349C36.5214 11.044 37.6652 10.0808 37.6652 8.54579V8.48559C37.6652 6.83015 36.4612 5.98738 34.5048 5.98738H30.6822V11.044ZM53.8993 22V14.1141L45.893 0.930762H52.5449L56.8791 8.60598L61.2434 0.930762H67.7749L59.7686 14.0238V22H53.8993ZM71.6774 22V0.930762H82.4829C85.1316 0.930762 86.9978 1.59294 88.2318 2.82699C89.0746 3.66976 89.5863 4.78342 89.5863 6.22817V6.28837C89.5863 8.72638 88.2017 10.1711 86.3356 10.9838C88.894 11.8266 90.5193 13.2713 90.5193 16.1307V16.1909C90.5193 19.8028 87.5696 22 82.5431 22H71.6774ZM77.3661 9.32836H81.0382C82.814 9.32836 83.8073 8.72638 83.8073 7.49232V7.43213C83.8073 6.28837 82.9043 5.62619 81.1586 5.62619H77.3661V9.32836ZM77.3661 17.3046H81.8809C83.6568 17.3046 84.6801 16.6123 84.6801 15.3782V15.318C84.6801 14.1743 83.7772 13.4218 81.8207 13.4218H77.3661V17.3046ZM95.3004 22V0.930762H101.14V16.8832H111.343V22H95.3004ZM9.72868 58.1505L1.18059 36.9308H7.71206L12.4978 50.2646L17.2835 36.9308H23.6946L15.1465 58.1505H9.72868ZM27.9616 58V36.9308H33.8309V58H27.9616ZM39.7949 58V36.9308H49.7576C52.9782 36.9308 55.2055 37.7735 56.6202 39.2183C57.8543 40.4222 58.4863 42.0476 58.4863 44.1244V44.1846C58.4863 47.4052 56.7707 49.5422 54.1521 50.6559L59.1786 58H52.4365L48.1925 51.619H45.6341V58H39.7949ZM45.6341 47.044H49.4868C51.4733 47.044 52.617 46.0808 52.617 44.5458V44.4856C52.617 42.8301 51.4131 41.9874 49.4567 41.9874H45.6341V47.044ZM68.6823 58V42.0476H62.3616V36.9308H80.8423V42.0476H74.5215V58H68.6823ZM94.9935 58.3913C89.0038 58.3913 85.2414 55.3513 85.2414 48.7596V36.9308H91.1709V48.6392C91.1709 51.6792 92.706 53.124 95.0537 53.124C97.4014 53.124 98.9364 51.7394 98.9364 48.7897V36.9308H104.866V48.6091C104.866 55.4115 100.983 58.3913 94.9935 58.3913ZM107.891 58L116.86 36.7803H122.489L131.458 58H125.198L123.662 54.2376H115.536L114.031 58H107.891ZM117.251 49.6927H121.977L119.629 43.703L117.251 49.6927ZM135.609 58V36.9308H141.449V52.8832H151.652V58H135.609ZM13.6114 94.4214C7.04988 94.4214 2.14376 89.9065 2.14376 83.5256V83.4654C2.14376 77.3252 6.95958 72.5094 13.491 72.5094C17.1932 72.5094 19.8118 73.6531 22.0391 75.5795L18.6079 79.703C17.1029 78.4389 15.598 77.7165 13.5211 77.7165C10.4812 77.7165 8.13344 80.2749 8.13344 83.4955V83.5557C8.13344 86.9569 10.5113 89.3949 13.8522 89.3949C15.2669 89.3949 16.3504 89.0939 17.2233 88.522V85.9636H13.0697V81.6895H22.7615V91.1707C20.5342 93.0067 17.434 94.4214 13.6114 94.4214ZM26.4202 94L35.3897 72.7803H41.0181L49.9876 94H43.727L42.192 90.2376H34.0653L32.5604 94H26.4202ZM35.7809 85.6927H40.5065L38.1588 79.703L35.7809 85.6927ZM54.1389 94V72.9308H60.3092L65.3357 81.0876L70.3622 72.9308H76.5325V94H70.7234V81.9002L65.3357 90.1473H65.2153L59.8577 81.9604V94H54.1389ZM82.3766 94V72.9308H99.3223V77.8971H88.1556V81.0876H98.2689V85.6927H88.1556V89.0337H99.4728V94H82.3766ZM112.836 94.3612C109.104 94.3612 105.553 93.1873 102.964 90.8697L106.215 86.987C108.292 88.6424 110.609 89.5153 113.047 89.5153C114.612 89.5153 115.455 88.9735 115.455 88.0705V88.0103C115.455 87.1374 114.763 86.6559 111.903 85.9937C107.419 84.9703 103.957 83.7062 103.957 79.3719V79.3117C103.957 75.3989 107.058 72.5696 112.114 72.5696C115.696 72.5696 118.495 73.5327 120.783 75.3688L117.863 79.4923C115.937 78.1379 113.83 77.4155 111.964 77.4155C110.549 77.4155 109.857 78.0175 109.857 78.77V78.8301C109.857 79.7933 110.579 80.2147 113.499 80.8769C118.345 81.9303 121.354 83.4955 121.354 87.4384V87.4986C121.354 91.8028 117.953 94.3612 112.836 94.3612Z"/>
</mask>
<path d="M8.01305 22H7.21305V22.8H8.01305V22ZM8.01305 6.04758H8.81305V5.24758H8.01305V6.04758ZM1.69227 6.04758H0.892275V6.84758H1.69227V6.04758ZM1.69227 0.930762V0.130762H0.892275V0.930762H1.69227ZM20.173 0.930762H20.973V0.130762H20.173V0.930762ZM20.173 6.04758V6.84758H20.973V6.04758H20.173ZM13.8522 6.04758V5.24758H13.0522V6.04758H13.8522ZM13.8522 22V22.8H14.6522V22H13.8522ZM8.81305 22V6.04758H7.21305V22H8.81305ZM8.01305 5.24758H1.69227V6.84758H8.01305V5.24758ZM2.49227 6.04758V0.930762H0.892275V6.04758H2.49227ZM1.69227 1.73076H20.173V0.130762H1.69227V1.73076ZM19.373 0.930762V6.04758H20.973V0.930762H19.373ZM20.173 5.24758H13.8522V6.84758H20.173V5.24758ZM13.0522 6.04758V22H14.6522V6.04758H13.0522ZM13.8522 21.2H8.01305V22.8H13.8522V21.2ZM24.843 22H24.043V22.8H24.843V22ZM24.843 0.930762V0.130762H24.043V0.930762H24.843ZM41.6683 3.21828L41.0967 3.77798L41.1031 3.78452L41.1097 3.79091L41.6683 3.21828ZM39.2002 14.6559L38.8871 13.9197L37.9885 14.3019L38.54 15.1077L39.2002 14.6559ZM44.2267 22V22.8H45.7437L44.8869 21.5482L44.2267 22ZM37.4846 22L36.8185 22.443L37.0559 22.8H37.4846V22ZM33.2406 15.619L33.9068 15.176L33.6693 14.819H33.2406V15.619ZM30.6822 15.619V14.819H29.8822V15.619H30.6822ZM30.6822 22V22.8H31.4822V22H30.6822ZM30.6822 11.044H29.8822V11.844H30.6822V11.044ZM30.6822 5.98738V5.18738H29.8822V5.98738H30.6822ZM25.643 22V0.930762H24.043V22H25.643ZM24.843 1.73076H34.8058V0.130762H24.843V1.73076ZM34.8058 1.73076C37.894 1.73076 39.882 2.53738 41.0967 3.77798L42.2399 2.65858C40.6254 1.00969 38.1587 0.130762 34.8058 0.130762V1.73076ZM41.1097 3.79091C42.1627 4.81827 42.7345 6.2228 42.7345 8.1244H44.3345C44.3345 5.87236 43.6421 4.0262 42.227 2.64565L41.1097 3.79091ZM42.7345 8.1244V8.1846H44.3345V8.1244H42.7345ZM42.7345 8.1846C42.7345 11.049 41.2445 12.9171 38.8871 13.9197L39.5133 15.3921C42.3932 14.1673 44.3345 11.7614 44.3345 8.1846H42.7345ZM38.54 15.1077L43.5666 22.4518L44.8869 21.5482L39.8604 14.204L38.54 15.1077ZM44.2267 21.2H37.4846V22.8H44.2267V21.2ZM38.1507 21.557L33.9068 15.176L32.5745 16.0621L36.8185 22.443L38.1507 21.557ZM33.2406 14.819H30.6822V16.419H33.2406V14.819ZM29.8822 15.619V22H31.4822V15.619H29.8822ZM30.6822 21.2H24.843V22.8H30.6822V21.2ZM30.6822 11.844H34.5349V10.244H30.6822V11.844ZM34.5349 11.844C35.6471 11.844 36.6287 11.5751 37.3485 10.9922C38.089 10.3925 38.4652 9.52949 38.4652 8.54579H36.8652C36.8652 9.09713 36.6695 9.48322 36.3415 9.74884C35.9927 10.0313 35.4092 10.244 34.5349 10.244V11.844ZM38.4652 8.54579V8.48559H36.8652V8.54579H38.4652ZM38.4652 8.48559C38.4652 7.44253 38.0735 6.56882 37.3049 5.98046C36.569 5.41706 35.5817 5.18738 34.5048 5.18738V6.78738C35.3843 6.78738 35.9772 6.97908 36.3324 7.25093C36.6549 7.49781 36.8652 7.87321 36.8652 8.48559H38.4652ZM34.5048 5.18738H30.6822V6.78738H34.5048V5.18738ZM29.8822 5.98738V11.044H31.4822V5.98738H29.8822ZM53.8993 22H53.0993V22.8H53.8993V22ZM53.8993 14.1141H54.6993V13.8902L54.5831 13.6988L53.8993 14.1141ZM45.893 0.930762V0.130762H44.4712L45.2092 1.34603L45.893 0.930762ZM52.5449 0.930762L53.2415 0.537386L53.0118 0.130762H52.5449V0.930762ZM56.8791 8.60598L56.1825 8.99936L56.8767 10.2287L57.5745 9.00143L56.8791 8.60598ZM61.2434 0.930762V0.130762H60.7781L60.548 0.53532L61.2434 0.930762ZM67.7749 0.930762L68.4574 1.34811L69.2018 0.130762H67.7749V0.930762ZM59.7686 14.0238L59.0861 13.6064L58.9686 13.7986V14.0238H59.7686ZM59.7686 22V22.8H60.5686V22H59.7686ZM54.6993 22V14.1141H53.0993V22H54.6993ZM54.5831 13.6988L46.5768 0.515498L45.2092 1.34603L53.2155 14.5293L54.5831 13.6988ZM45.893 1.73076H52.5449V0.130762H45.893V1.73076ZM51.8483 1.32414L56.1825 8.99936L57.5757 8.21261L53.2415 0.537386L51.8483 1.32414ZM57.5745 9.00143L61.9389 1.3262L60.548 0.53532L56.1837 8.21054L57.5745 9.00143ZM61.2434 1.73076H67.7749V0.130762H61.2434V1.73076ZM67.0924 0.513412L59.0861 13.6064L60.4511 14.4411L68.4574 1.34811L67.0924 0.513412ZM58.9686 14.0238V22H60.5686V14.0238H58.9686ZM59.7686 21.2H53.8993V22.8H59.7686V21.2ZM71.6774 22H70.8774V22.8H71.6774V22ZM71.6774 0.930762V0.130762H70.8774V0.930762H71.6774ZM86.3356 10.9838L86.0162 10.2503L84.0936 11.0876L86.0853 11.7436L86.3356 10.9838ZM77.3661 9.32836H76.5661V10.1284H77.3661V9.32836ZM77.3661 5.62619V4.82619H76.5661V5.62619H77.3661ZM77.3661 17.3046H76.5661V18.1046H77.3661V17.3046ZM77.3661 13.4218V12.6218H76.5661V13.4218H77.3661ZM72.4774 22V0.930762H70.8774V22H72.4774ZM71.6774 1.73076H82.4829V0.130762H71.6774V1.73076ZM82.4829 1.73076C85.0051 1.73076 86.6334 2.35996 87.6661 3.39268L88.7975 2.26131C87.3621 0.825914 85.2581 0.130762 82.4829 0.130762V1.73076ZM87.6661 3.39268C88.3583 4.08481 88.7863 4.99473 88.7863 6.22817H90.3863C90.3863 4.57212 89.7909 3.25472 88.7975 2.26131L87.6661 3.39268ZM88.7863 6.22817V6.28837H90.3863V6.22817H88.7863ZM88.7863 6.28837C88.7863 7.34508 88.49 8.14393 88.0222 8.76359C87.5471 9.39295 86.86 9.88284 86.0162 10.2503L86.655 11.7173C87.6773 11.2721 88.6155 10.6333 89.2992 9.72759C89.9902 8.8122 90.3863 7.66967 90.3863 6.28837H88.7863ZM86.0853 11.7436C87.2935 12.1416 88.1909 12.6539 88.7867 13.33C89.3657 13.987 89.7193 14.8661 89.7193 16.1307H91.3193C91.3193 14.5359 90.8603 13.263 89.987 12.2721C89.1305 11.3002 87.9361 10.6687 86.5859 10.224L86.0853 11.7436ZM89.7193 16.1307V16.1909H91.3193V16.1307H89.7193ZM89.7193 16.1909C89.7193 17.7511 89.0961 18.9599 87.9433 19.8046C86.7606 20.6713 84.9537 21.2 82.5431 21.2V22.8C85.159 22.8 87.3402 22.2301 88.889 21.0952C90.4677 19.9383 91.3193 18.2425 91.3193 16.1909H89.7193ZM82.5431 21.2H71.6774V22.8H82.5431V21.2ZM77.3661 10.1284H81.0382V8.52836H77.3661V10.1284ZM81.0382 10.1284C81.9933 10.1284 82.8662 9.97054 83.5237 9.54448C84.2357 9.08312 84.6073 8.36328 84.6073 7.49232H83.0073C83.0073 7.85542 82.8822 8.0536 82.6536 8.20174C82.3705 8.38518 81.8589 8.52836 81.0382 8.52836V10.1284ZM84.6073 7.49232V7.43213H83.0073V7.49232H84.6073ZM84.6073 7.43213C84.6073 6.61829 84.2692 5.91243 83.5941 5.4433C82.9619 5.00398 82.1131 4.82619 81.1586 4.82619V6.42619C81.9498 6.42619 82.4253 6.57949 82.681 6.7572C82.8939 6.9051 83.0073 7.1022 83.0073 7.43213H84.6073ZM81.1586 4.82619H77.3661V6.42619H81.1586V4.82619ZM76.5661 5.62619V9.32836H78.1661V5.62619H76.5661ZM77.3661 18.1046H81.8809V16.5046H77.3661V18.1046ZM81.8809 18.1046C82.8549 18.1046 83.7367 17.9176 84.3986 17.4642C85.1006 16.9832 85.4801 16.2512 85.4801 15.3782H83.8801C83.8801 15.7393 83.748 15.9705 83.4944 16.1442C83.2006 16.3454 82.6828 16.5046 81.8809 16.5046V18.1046ZM85.4801 15.3782V15.318H83.8801V15.3782H85.4801ZM85.4801 15.318C85.4801 14.5062 85.1439 13.7791 84.4446 13.2869C83.7857 12.823 82.8827 12.6218 81.8207 12.6218V14.2218C82.7152 14.2218 83.2419 14.3969 83.5236 14.5952C83.7649 14.7651 83.8801 14.9861 83.8801 15.318H85.4801ZM81.8207 12.6218H77.3661V14.2218H81.8207V12.6218ZM76.5661 13.4218V17.3046H78.1661V13.4218H76.5661ZM95.3004 22H94.5004V22.8H95.3004V22ZM95.3004 0.930762V0.130762H94.5004V0.930762H95.3004ZM101.14 0.930762H101.94V0.130762H101.14V0.930762ZM101.14 16.8832H100.34V17.6832H101.14V16.8832ZM111.343 16.8832H112.143V16.0832H111.343V16.8832ZM111.343 22V22.8H112.143V22H111.343ZM96.1004 22V0.930762H94.5004V22H96.1004ZM95.3004 1.73076H101.14V0.130762H95.3004V1.73076ZM100.34 0.930762V16.8832H101.94V0.930762H100.34ZM101.14 17.6832H111.343V16.0832H101.14V17.6832ZM110.543 16.8832V22H112.143V16.8832H110.543ZM111.343 21.2H95.3004V22.8H111.343V21.2ZM9.72868 58.1505L8.98663 58.4494L9.18848 58.9505H9.72868V58.1505ZM1.18059 36.9308V36.1308H-0.00414788L0.43854 37.2297L1.18059 36.9308ZM7.71206 36.9308L8.46503 36.6605L8.27489 36.1308H7.71206V36.9308ZM12.4978 50.2646L11.7448 50.5348L12.4978 52.6327L13.2508 50.5348L12.4978 50.2646ZM17.2835 36.9308V36.1308H16.7207L16.5305 36.6605L17.2835 36.9308ZM23.6946 36.9308L24.4366 37.2297L24.8793 36.1308H23.6946V36.9308ZM15.1465 58.1505V58.9505H15.6867L15.8885 58.4494L15.1465 58.1505ZM10.4707 57.8516L1.92265 36.6318L0.43854 37.2297L8.98663 58.4494L10.4707 57.8516ZM1.18059 37.7308H7.71206V36.1308H1.18059V37.7308ZM6.95909 37.201L11.7448 50.5348L13.2508 49.9943L8.46503 36.6605L6.95909 37.201ZM13.2508 50.5348L18.0365 37.201L16.5305 36.6605L11.7448 49.9943L13.2508 50.5348ZM17.2835 37.7308H23.6946V36.1308H17.2835V37.7308ZM22.9525 36.6318L14.4044 57.8516L15.8885 58.4494L24.4366 37.2297L22.9525 36.6318ZM15.1465 57.3505H9.72868V58.9505H15.1465V57.3505ZM27.9616 58H27.1616V58.8H27.9616V58ZM27.9616 36.9308V36.1308H27.1616V36.9308H27.9616ZM33.8309 36.9308H34.6309V36.1308H33.8309V36.9308ZM33.8309 58V58.8H34.6309V58H33.8309ZM28.7616 58V36.9308H27.1616V58H28.7616ZM27.9616 37.7308H33.8309V36.1308H27.9616V37.7308ZM33.0309 36.9308V58H34.6309V36.9308H33.0309ZM33.8309 57.2H27.9616V58.8H33.8309V57.2ZM39.7949 58H38.9949V58.8H39.7949V58ZM39.7949 36.9308V36.1308H38.9949V36.9308H39.7949ZM56.6202 39.2183L56.0486 39.778L56.055 39.7845L56.0615 39.7909L56.6202 39.2183ZM54.1521 50.6559L53.839 49.9197L52.9404 50.3019L53.4919 51.1077L54.1521 50.6559ZM59.1786 58V58.8H60.6956L59.8388 57.5482L59.1786 58ZM52.4365 58L51.7703 58.443L52.0077 58.8H52.4365V58ZM48.1925 51.619L48.8586 51.176L48.6212 50.819H48.1925V51.619ZM45.6341 51.619V50.819H44.8341V51.619H45.6341ZM45.6341 58V58.8H46.4341V58H45.6341ZM45.6341 47.044H44.8341V47.844H45.6341V47.044ZM45.6341 41.9874V41.1874H44.8341V41.9874H45.6341ZM40.5949 58V36.9308H38.9949V58H40.5949ZM39.7949 37.7308H49.7576V36.1308H39.7949V37.7308ZM49.7576 37.7308C52.8459 37.7308 54.8338 38.5374 56.0486 39.778L57.1918 38.6586C55.5773 37.0097 53.1106 36.1308 49.7576 36.1308V37.7308ZM56.0615 39.7909C57.1146 40.8183 57.6863 42.2228 57.6863 44.1244H59.2863C59.2863 41.8724 58.5939 40.0262 57.1789 38.6457L56.0615 39.7909ZM57.6863 44.1244V44.1846H59.2863V44.1244H57.6863ZM57.6863 44.1846C57.6863 47.049 56.1963 48.9171 53.839 49.9197L54.4652 51.3921C57.3451 50.1673 59.2863 47.7614 59.2863 44.1846H57.6863ZM53.4919 51.1077L58.5184 58.4518L59.8388 57.5482L54.8123 50.204L53.4919 51.1077ZM59.1786 57.2H52.4365V58.8H59.1786V57.2ZM53.1026 57.557L48.8586 51.176L47.5264 52.0621L51.7703 58.443L53.1026 57.557ZM48.1925 50.819H45.6341V52.419H48.1925V50.819ZM44.8341 51.619V58H46.4341V51.619H44.8341ZM45.6341 57.2H39.7949V58.8H45.6341V57.2ZM45.6341 47.844H49.4868V46.244H45.6341V47.844ZM49.4868 47.844C50.599 47.844 51.5806 47.5751 52.3003 46.9922C53.0409 46.3925 53.417 45.5295 53.417 44.5458H51.817C51.817 45.0971 51.6213 45.4832 51.2934 45.7488C50.9446 46.0313 50.3611 46.244 49.4868 46.244V47.844ZM53.417 44.5458V44.4856H51.817V44.5458H53.417ZM53.417 44.4856C53.417 43.4425 53.0254 42.5688 52.2568 41.9805C51.5208 41.4171 50.5336 41.1874 49.4567 41.1874V42.7874C50.3362 42.7874 50.9291 42.9791 51.2842 43.2509C51.6067 43.4978 51.817 43.8732 51.817 44.4856H53.417ZM49.4567 41.1874H45.6341V42.7874H49.4567V41.1874ZM44.8341 41.9874V47.044H46.4341V41.9874H44.8341ZM68.6823 58H67.8823V58.8H68.6823V58ZM68.6823 42.0476H69.4823V41.2476H68.6823V42.0476ZM62.3616 42.0476H61.5616V42.8476H62.3616V42.0476ZM62.3616 36.9308V36.1308H61.5616V36.9308H62.3616ZM80.8423 36.9308H81.6423V36.1308H80.8423V36.9308ZM80.8423 42.0476V42.8476H81.6423V42.0476H80.8423ZM74.5215 42.0476V41.2476H73.7215V42.0476H74.5215ZM74.5215 58V58.8H75.3215V58H74.5215ZM69.4823 58V42.0476H67.8823V58H69.4823ZM68.6823 41.2476H62.3616V42.8476H68.6823V41.2476ZM63.1616 42.0476V36.9308H61.5616V42.0476H63.1616ZM62.3616 37.7308H80.8423V36.1308H62.3616V37.7308ZM80.0423 36.9308V42.0476H81.6423V36.9308H80.0423ZM80.8423 41.2476H74.5215V42.8476H80.8423V41.2476ZM73.7215 42.0476V58H75.3215V42.0476H73.7215ZM74.5215 57.2H68.6823V58.8H74.5215V57.2ZM85.2414 36.9308V36.1308H84.4414V36.9308H85.2414ZM91.1709 36.9308H91.9709V36.1308H91.1709V36.9308ZM98.9364 36.9308V36.1308H98.1364V36.9308H98.9364ZM104.866 36.9308H105.666V36.1308H104.866V36.9308ZM94.9935 57.5913C92.1244 57.5913 89.9113 56.8634 88.4185 55.4637C86.9349 54.0726 86.0414 51.9035 86.0414 48.7596H84.4414C84.4414 52.2074 85.4292 54.8541 87.3241 56.6309C89.21 58.3992 91.8729 59.1913 94.9935 59.1913V57.5913ZM86.0414 48.7596V36.9308H84.4414V48.7596H86.0414ZM85.2414 37.7308H91.1709V36.1308H85.2414V37.7308ZM90.3709 36.9308V48.6392H91.9709V36.9308H90.3709ZM90.3709 48.6392C90.3709 50.2854 90.7868 51.6261 91.6413 52.5612C92.505 53.5065 93.7127 53.924 95.0537 53.924V52.324C94.0469 52.324 93.3132 52.0191 92.8225 51.482C92.3225 50.9348 91.9709 50.0331 91.9709 48.6392H90.3709ZM95.0537 53.924C96.3846 53.924 97.5897 53.5279 98.4562 52.6132C99.3173 51.7042 99.7364 50.3966 99.7364 48.7897H98.1364C98.1364 50.1326 97.788 50.992 97.2947 51.5128C96.8068 52.0278 96.0705 52.324 95.0537 52.324V53.924ZM99.7364 48.7897V36.9308H98.1364V48.7897H99.7364ZM98.9364 37.7308H104.866V36.1308H98.9364V37.7308ZM104.066 36.9308V48.6091H105.666V36.9308H104.066ZM104.066 48.6091C104.066 51.8581 103.143 54.0628 101.632 55.4646C100.11 56.8765 97.8665 57.5913 94.9935 57.5913V59.1913C98.1101 59.1913 100.803 58.4162 102.72 56.6376C104.648 54.8489 105.666 52.1625 105.666 48.6091H104.066ZM107.891 58L107.154 57.6885L106.684 58.8H107.891V58ZM116.86 36.7803V35.9803H116.33L116.123 36.4688L116.86 36.7803ZM122.489 36.7803L123.225 36.4688L123.019 35.9803H122.489V36.7803ZM131.458 58V58.8H132.665L132.195 57.6885L131.458 58ZM125.198 58L124.457 58.3022L124.66 58.8H125.198V58ZM123.662 54.2376L124.403 53.9354L124.2 53.4376H123.662V54.2376ZM115.536 54.2376V53.4376H114.994L114.793 53.9405L115.536 54.2376ZM114.031 58V58.8H114.572L114.774 58.2971L114.031 58ZM117.251 49.6927L116.508 49.3975L116.073 50.4927H117.251V49.6927ZM121.977 49.6927V50.4927H123.15L122.722 49.4008L121.977 49.6927ZM119.629 43.703L120.374 43.4111L119.634 41.5229L118.886 43.4078L119.629 43.703ZM108.628 58.3115L117.597 37.0917L116.123 36.4688L107.154 57.6885L108.628 58.3115ZM116.86 37.5803H122.489V35.9803H116.86V37.5803ZM121.752 37.0917L130.721 58.3115L132.195 57.6885L123.225 36.4688L121.752 37.0917ZM131.458 57.2H125.198V58.8H131.458V57.2ZM125.938 57.6978L124.403 53.9354L122.922 54.5399L124.457 58.3022L125.938 57.6978ZM123.662 53.4376H115.536V55.0376H123.662V53.4376ZM114.793 53.9405L113.288 57.7029L114.774 58.2971L116.279 54.5347L114.793 53.9405ZM114.031 57.2H107.891V58.8H114.031V57.2ZM117.251 50.4927H121.977V48.8927H117.251V50.4927ZM122.722 49.4008L120.374 43.4111L118.884 43.995L121.232 49.9846L122.722 49.4008ZM118.886 43.4078L116.508 49.3975L117.995 49.9879L120.373 43.9982L118.886 43.4078ZM135.609 58H134.809V58.8H135.609V58ZM135.609 36.9308V36.1308H134.809V36.9308H135.609ZM141.449 36.9308H142.249V36.1308H141.449V36.9308ZM141.449 52.8832H140.649V53.6832H141.449V52.8832ZM151.652 52.8832H152.452V52.0832H151.652V52.8832ZM151.652 58V58.8H152.452V58H151.652ZM136.409 58V36.9308H134.809V58H136.409ZM135.609 37.7308H141.449V36.1308H135.609V37.7308ZM140.649 36.9308V52.8832H142.249V36.9308H140.649ZM141.449 53.6832H151.652V52.0832H141.449V53.6832ZM150.852 52.8832V58H152.452V52.8832H150.852ZM151.652 57.2H135.609V58.8H151.652V57.2ZM22.0391 75.5795L22.6541 76.0912L23.1561 75.4878L22.5625 74.9744L22.0391 75.5795ZM18.6079 79.703L18.0933 80.3156L18.7087 80.8325L19.2228 80.2147L18.6079 79.703ZM17.2233 88.522L17.6617 89.1912L18.0233 88.9543V88.522H17.2233ZM17.2233 85.9636H18.0233V85.1636H17.2233V85.9636ZM13.0697 85.9636H12.2697V86.7636H13.0697V85.9636ZM13.0697 81.6895V80.8895H12.2697V81.6895H13.0697ZM22.7615 81.6895H23.5615V80.8895H22.7615V81.6895ZM22.7615 91.1707L23.2704 91.788L23.5615 91.548V91.1707H22.7615ZM13.6114 93.6214C7.44533 93.6214 2.94376 89.4197 2.94376 83.5256H1.34376C1.34376 90.3934 6.65444 95.2214 13.6114 95.2214V93.6214ZM2.94376 83.5256V83.4654H1.34376V83.5256H2.94376ZM2.94376 83.4654C2.94376 77.7854 7.38282 73.3094 13.491 73.3094V71.7094C6.53635 71.7094 1.34376 76.865 1.34376 83.4654H2.94376ZM13.491 73.3094C16.9962 73.3094 19.4301 74.3807 21.5158 76.1846L22.5625 74.9744C20.1935 72.9255 17.3903 71.7094 13.491 71.7094V73.3094ZM21.4242 75.0678L17.9929 79.1913L19.2228 80.2147L22.6541 76.0912L21.4242 75.0678ZM19.1224 79.0905C17.5106 77.7365 15.8297 76.9165 13.5211 76.9165V78.5165C15.3662 78.5165 16.6953 79.1412 18.0933 80.3156L19.1224 79.0905ZM13.5211 76.9165C9.98393 76.9165 7.33344 79.8906 7.33344 83.4955H8.93344C8.93344 80.6592 10.9784 78.5165 13.5211 78.5165V76.9165ZM7.33344 83.4955V83.5557H8.93344V83.4955H7.33344ZM7.33344 83.5557C7.33344 87.382 10.0529 90.1949 13.8522 90.1949V88.5949C10.9696 88.5949 8.93344 86.5318 8.93344 83.5557H7.33344ZM13.8522 90.1949C15.3847 90.1949 16.6301 89.8671 17.6617 89.1912L16.7849 87.8528C16.0708 88.3207 15.1491 88.5949 13.8522 88.5949V90.1949ZM18.0233 88.522V85.9636H16.4233V88.522H18.0233ZM17.2233 85.1636H13.0697V86.7636H17.2233V85.1636ZM13.8697 85.9636V81.6895H12.2697V85.9636H13.8697ZM13.0697 82.4895H22.7615V80.8895H13.0697V82.4895ZM21.9615 81.6895V91.1707H23.5615V81.6895H21.9615ZM22.2527 90.5534C20.1514 92.2855 17.2272 93.6214 13.6114 93.6214V95.2214C17.6408 95.2214 20.917 93.728 23.2704 91.788L22.2527 90.5534ZM26.4202 94L25.6833 93.6885L25.2135 94.8H26.4202V94ZM35.3897 72.7803V71.9803H34.8593L34.6528 72.4688L35.3897 72.7803ZM41.0181 72.7803L41.755 72.4688L41.5485 71.9803H41.0181V72.7803ZM49.9876 94V94.8H51.1943L50.7245 93.6885L49.9876 94ZM43.727 94L42.9863 94.3022L43.1894 94.8H43.727V94ZM42.192 90.2376L42.9327 89.9354L42.7296 89.4376H42.192V90.2376ZM34.0653 90.2376V89.4376H33.5237L33.3225 89.9405L34.0653 90.2376ZM32.5604 94V94.8H33.102L33.3031 94.2971L32.5604 94ZM35.7809 85.6927L35.0374 85.3975L34.6026 86.4927H35.7809V85.6927ZM40.5065 85.6927V86.4927H41.6793L41.2513 85.4008L40.5065 85.6927ZM38.1588 79.703L38.9036 79.4111L38.1635 77.5229L37.4152 79.4078L38.1588 79.703ZM27.1571 94.3115L36.1265 73.0917L34.6528 72.4688L25.6833 93.6885L27.1571 94.3115ZM35.3897 73.5803H41.0181V71.9803H35.3897V73.5803ZM40.2813 73.0917L49.2507 94.3115L50.7245 93.6885L41.755 72.4688L40.2813 73.0917ZM49.9876 93.2H43.727V94.8H49.9876V93.2ZM44.4678 93.6978L42.9327 89.9354L41.4513 90.5399L42.9863 94.3022L44.4678 93.6978ZM42.192 89.4376H34.0653V91.0376H42.192V89.4376ZM33.3225 89.9405L31.8176 93.7029L33.3031 94.2971L34.8081 90.5347L33.3225 89.9405ZM32.5604 93.2H26.4202V94.8H32.5604V93.2ZM35.7809 86.4927H40.5065V84.8927H35.7809V86.4927ZM41.2513 85.4008L38.9036 79.4111L37.4139 79.995L39.7616 85.9846L41.2513 85.4008ZM37.4152 79.4078L35.0374 85.3975L36.5245 85.9879L38.9023 79.9982L37.4152 79.4078ZM54.1389 94H53.3389V94.8H54.1389V94ZM54.1389 72.9308V72.1308H53.3389V72.9308H54.1389ZM60.3092 72.9308L60.9903 72.5111L60.7559 72.1308H60.3092V72.9308ZM65.3357 81.0876L64.6546 81.5073L65.3357 82.6125L66.0168 81.5073L65.3357 81.0876ZM70.3622 72.9308V72.1308H69.9155L69.6812 72.5111L70.3622 72.9308ZM76.5325 72.9308H77.3325V72.1308H76.5325V72.9308ZM76.5325 94V94.8H77.3325V94H76.5325ZM70.7234 94H69.9234V94.8H70.7234V94ZM70.7234 81.9002H71.5234V79.2129L70.0537 81.4627L70.7234 81.9002ZM65.3357 90.1473V90.9473H65.7687L66.0055 90.5849L65.3357 90.1473ZM65.2153 90.1473L64.5459 90.5854L64.7828 90.9473H65.2153V90.1473ZM59.8577 81.9604L60.5271 81.5224L59.0577 79.277V81.9604H59.8577ZM59.8577 94V94.8H60.6577V94H59.8577ZM54.9389 94V72.9308H53.3389V94H54.9389ZM54.1389 73.7308H60.3092V72.1308H54.1389V73.7308ZM59.6281 73.3505L64.6546 81.5073L66.0168 80.6679L60.9903 72.5111L59.6281 73.3505ZM66.0168 81.5073L71.0433 73.3505L69.6812 72.5111L64.6546 80.6679L66.0168 81.5073ZM70.3622 73.7308H76.5325V72.1308H70.3622V73.7308ZM75.7325 72.9308V94H77.3325V72.9308H75.7325ZM76.5325 93.2H70.7234V94.8H76.5325V93.2ZM71.5234 94V81.9002H69.9234V94H71.5234ZM70.0537 81.4627L64.666 89.7098L66.0055 90.5849L71.3932 82.3378L70.0537 81.4627ZM65.3357 89.3473H65.2153V90.9473H65.3357V89.3473ZM65.8847 89.7093L60.5271 81.5224L59.1883 82.3985L64.5459 90.5854L65.8847 89.7093ZM59.0577 81.9604V94H60.6577V81.9604H59.0577ZM59.8577 93.2H54.1389V94.8H59.8577V93.2ZM82.3766 94H81.5766V94.8H82.3766V94ZM82.3766 72.9308V72.1308H81.5766V72.9308H82.3766ZM99.3223 72.9308H100.122V72.1308H99.3223V72.9308ZM99.3223 77.8971V78.6971H100.122V77.8971H99.3223ZM88.1556 77.8971V77.0971H87.3556V77.8971H88.1556ZM88.1556 81.0876H87.3556V81.8876H88.1556V81.0876ZM98.2689 81.0876H99.0689V80.2876H98.2689V81.0876ZM98.2689 85.6927V86.4927H99.0689V85.6927H98.2689ZM88.1556 85.6927V84.8927H87.3556V85.6927H88.1556ZM88.1556 89.0337H87.3556V89.8337H88.1556V89.0337ZM99.4728 89.0337H100.273V88.2337H99.4728V89.0337ZM99.4728 94V94.8H100.273V94H99.4728ZM83.1766 94V72.9308H81.5766V94H83.1766ZM82.3766 73.7308H99.3223V72.1308H82.3766V73.7308ZM98.5223 72.9308V77.8971H100.122V72.9308H98.5223ZM99.3223 77.0971H88.1556V78.6971H99.3223V77.0971ZM87.3556 77.8971V81.0876H88.9556V77.8971H87.3556ZM88.1556 81.8876H98.2689V80.2876H88.1556V81.8876ZM97.4689 81.0876V85.6927H99.0689V81.0876H97.4689ZM98.2689 84.8927H88.1556V86.4927H98.2689V84.8927ZM87.3556 85.6927V89.0337H88.9556V85.6927H87.3556ZM88.1556 89.8337H99.4728V88.2337H88.1556V89.8337ZM98.6728 89.0337V94H100.273V89.0337H98.6728ZM99.4728 93.2H82.3766V94.8H99.4728V93.2ZM102.964 90.8697L102.351 90.3562L101.854 90.9495L102.43 91.4657L102.964 90.8697ZM106.215 86.987L106.713 86.3614L106.103 85.8746L105.601 86.4734L106.215 86.987ZM111.903 85.9937L112.084 85.2143L112.081 85.2137L111.903 85.9937ZM120.783 75.3688L121.436 75.8311L121.871 75.2163L121.283 74.7449L120.783 75.3688ZM117.863 79.4923L117.403 80.1467L118.055 80.6054L118.516 79.9546L117.863 79.4923ZM113.499 80.8769L113.322 81.6571L113.329 81.6586L113.499 80.8769ZM112.836 93.5612C109.265 93.5612 105.914 92.4376 103.498 90.2737L102.43 91.4657C105.191 93.9371 108.944 95.1612 112.836 95.1612V93.5612ZM103.577 91.3833L106.828 87.5005L105.601 86.4734L102.351 90.3562L103.577 91.3833ZM105.716 87.6125C107.917 89.3669 110.407 90.3153 113.047 90.3153V88.7153C110.812 88.7153 108.666 87.9179 106.713 86.3614L105.716 87.6125ZM113.047 90.3153C113.903 90.3153 114.672 90.1704 115.255 89.8141C115.882 89.4308 116.255 88.8199 116.255 88.0705H114.655C114.655 88.2241 114.606 88.3356 114.421 88.4489C114.191 88.5892 113.757 88.7153 113.047 88.7153V90.3153ZM116.255 88.0705V88.0103H114.655V88.0705H116.255ZM116.255 88.0103C116.255 87.6798 116.188 87.3326 115.984 87.0011C115.785 86.6783 115.496 86.4328 115.157 86.2336C114.509 85.8519 113.51 85.5445 112.084 85.2143L111.723 86.7731C113.157 87.1051 113.933 87.3695 114.346 87.6124C114.538 87.7254 114.6 87.8054 114.621 87.8391C114.636 87.8641 114.655 87.9044 114.655 88.0103H116.255ZM112.081 85.2137C109.833 84.7008 107.988 84.1544 106.704 83.2663C105.489 82.4268 104.757 81.2708 104.757 79.3719H103.157C103.157 81.8073 104.156 83.4505 105.794 84.5825C107.361 85.6658 109.489 86.2633 111.725 86.7736L112.081 85.2137ZM104.757 79.3719V79.3117H103.157V79.3719H104.757ZM104.757 79.3117C104.757 77.5811 105.436 76.1216 106.658 75.0828C107.889 74.0355 109.731 73.3696 112.114 73.3696V71.7696C109.441 71.7696 107.204 72.5183 105.621 73.8639C104.029 75.2179 103.157 77.1295 103.157 79.3117H104.757ZM112.114 73.3696C115.538 73.3696 118.154 74.2851 120.282 75.9927L121.283 74.7449C118.836 72.7803 115.853 71.7696 112.114 71.7696V73.3696ZM120.13 74.9065L117.21 79.03L118.516 79.9546L121.436 75.8311L120.13 74.9065ZM118.323 78.8379C116.291 77.4089 114.026 76.6155 111.964 76.6155V78.2155C113.633 78.2155 115.583 78.8669 117.403 80.1467L118.323 78.8379ZM111.964 76.6155C111.155 76.6155 110.449 76.7858 109.921 77.1548C109.369 77.5408 109.057 78.1184 109.057 78.77H110.657C110.657 78.669 110.69 78.5694 110.838 78.4663C111.01 78.3462 111.357 78.2155 111.964 78.2155V76.6155ZM109.057 78.77V78.8301H110.657V78.77H109.057ZM109.057 78.8301C109.057 79.175 109.123 79.5373 109.333 79.8806C109.539 80.2173 109.84 80.4655 110.189 80.6627C110.852 81.0377 111.876 81.3292 113.322 81.6571L113.676 80.0967C112.202 79.7624 111.405 79.5121 110.977 79.27C110.78 79.1588 110.718 79.0796 110.698 79.0457C110.681 79.0185 110.657 78.9668 110.657 78.8301H109.057ZM113.329 81.6586C115.732 82.181 117.552 82.8075 118.765 83.7147C119.919 84.5783 120.554 85.7171 120.554 87.4384H122.154C122.154 85.2168 121.285 83.6016 119.723 82.4335C118.219 81.309 116.112 80.6262 113.669 80.0951L113.329 81.6586ZM120.554 87.4384V87.4986H122.154V87.4384H120.554ZM120.554 87.4986C120.554 89.4181 119.807 90.8978 118.518 91.9163C117.208 92.9517 115.271 93.5612 112.836 93.5612V95.1612C115.518 95.1612 117.841 94.4915 119.51 93.1716C121.201 91.8349 122.154 89.8833 122.154 87.4986H120.554Z" fill="white" fill-opacity="0.2" mask="url(#path-1-outside-1_19_435)"/>
</svg>
