<svg width="210" height="57" viewBox="0 0 210 57" fill="none" xmlns="http://www.w3.org/2000/svg">
<mask id="path-1-outside-1_51_23" maskUnits="userSpaceOnUse" x="0" y="0" width="210" height="57" fill="black">
<rect fill="white" width="210" height="57"/>
<path d="M8.01305 22V6.04758H1.69227V0.930762H20.173V6.04758H13.8522V22H8.01305ZM24.843 22V0.930762H34.8058C38.0264 0.930762 40.2537 1.77353 41.6683 3.21828C42.9024 4.42224 43.5345 6.04758 43.5345 8.1244V8.1846C43.5345 11.4052 41.8188 13.5422 39.2002 14.6559L44.2267 22H37.4846L33.2406 15.619H33.1804H30.6822V22H24.843ZM30.6822 11.044H34.5349C36.5214 11.044 37.6652 10.0808 37.6652 8.54579V8.48559C37.6652 6.83015 36.4612 5.98738 34.5048 5.98738H30.6822V11.044ZM53.8993 22V14.1141L45.893 0.930762H52.5449L56.8791 8.60598L61.2434 0.930762H67.7749L59.7686 14.0238V22H53.8993ZM71.6774 22V0.930762H82.4829C85.1316 0.930762 86.9978 1.59294 88.2318 2.82699C89.0746 3.66976 89.5863 4.78342 89.5863 6.22817V6.28837C89.5863 8.72638 88.2017 10.1711 86.3356 10.9838C88.894 11.8266 90.5193 13.2713 90.5193 16.1307V16.1909C90.5193 19.8028 87.5696 22 82.5431 22H71.6774ZM77.3661 9.32836H81.0382C82.814 9.32836 83.8073 8.72638 83.8073 7.49232V7.43213C83.8073 6.28837 82.9043 5.62619 81.1586 5.62619H77.3661V9.32836ZM77.3661 17.3046H81.8809C83.6568 17.3046 84.6801 16.6123 84.6801 15.3782V15.318C84.6801 14.1743 83.7772 13.4218 81.8207 13.4218H77.3661V17.3046ZM95.3004 22V0.930762H101.14V16.8832H111.343V22H95.3004ZM13.6114 55.4214C7.04988 55.4214 2.14376 50.9065 2.14376 44.5256V44.4654C2.14376 38.3252 6.95958 33.5094 13.491 33.5094C17.1932 33.5094 19.8118 34.6531 22.0391 36.5795L18.6079 40.703C17.1029 39.4389 15.598 38.7165 13.5211 38.7165C10.4812 38.7165 8.13344 41.2749 8.13344 44.4955V44.5557C8.13344 47.9569 10.5113 50.3949 13.8522 50.3949C15.2669 50.3949 16.3504 50.0939 17.2233 49.522V46.9636H13.0697V42.6895H22.7615V52.1707C20.5342 54.0067 17.434 55.4214 13.6114 55.4214ZM26.4202 55L35.3897 33.7803H41.0181L49.9876 55H43.727L42.192 51.2376H34.0653L32.5604 55H26.4202ZM35.7809 46.6927H40.5065L38.1588 40.703L35.7809 46.6927ZM54.1389 55V33.9308H60.3092L65.3357 42.0876L70.3622 33.9308H76.5325V55H70.7234V42.9002L65.3357 51.1473H65.2153L59.8577 42.9604V55H54.1389ZM82.3766 55V33.9308H99.3223V38.8971H88.1556V42.0876H98.2689V46.6927H88.1556V50.0337H99.4728V55H82.3766ZM112.836 55.3612C109.104 55.3612 105.553 54.1873 102.964 51.8697L106.215 47.987C108.292 49.6424 110.609 50.5153 113.047 50.5153C114.612 50.5153 115.455 49.9735 115.455 49.0705V49.0103C115.455 48.1374 114.763 47.6559 111.903 46.9937C107.419 45.9703 103.957 44.7062 103.957 40.3719V40.3117C103.957 36.3989 107.058 33.5696 112.114 33.5696C115.696 33.5696 118.495 34.5327 120.783 36.3688L117.863 40.4923C115.937 39.1379 113.83 38.4155 111.964 38.4155C110.549 38.4155 109.857 39.0175 109.857 39.77V39.8301C109.857 40.7933 110.579 41.2147 113.499 41.8769C118.345 42.9303 121.354 44.4955 121.354 48.4384V48.4986C121.354 52.8028 117.953 55.3612 112.836 55.3612ZM126.301 55V33.9308H132.14V41.8167H139.635V33.9308H145.474V55H139.635V46.9937H132.14V55H126.301ZM161.9 55.4214C155.399 55.4214 150.583 50.5755 150.583 44.5256V44.4654C150.583 38.4155 155.459 33.5094 161.961 33.5094C168.462 33.5094 173.278 38.3553 173.278 44.4052V44.4654C173.278 50.5153 168.402 55.4214 161.9 55.4214ZM161.961 50.1541C165.181 50.1541 167.318 47.5656 167.318 44.5256V44.4654C167.318 41.4254 165.121 38.7767 161.9 38.7767C158.71 38.7767 156.573 41.3652 156.573 44.4052V44.4654C156.573 47.5054 158.77 50.1541 161.961 50.1541ZM182.85 55.1505L175.806 33.9308H181.977L185.649 46.1208L189.712 33.8706H194.739L198.802 46.1208L202.474 33.9308H208.524L201.481 55.1505H196.394L192.15 43.0206L187.936 55.1505H182.85Z"/>
</mask>
<path d="M8.01305 22H7.21305V22.8H8.01305V22ZM8.01305 6.04758H8.81305V5.24758H8.01305V6.04758ZM1.69227 6.04758H0.892275V6.84758H1.69227V6.04758ZM1.69227 0.930762V0.130762H0.892275V0.930762H1.69227ZM20.173 0.930762H20.973V0.130762H20.173V0.930762ZM20.173 6.04758V6.84758H20.973V6.04758H20.173ZM13.8522 6.04758V5.24758H13.0522V6.04758H13.8522ZM13.8522 22V22.8H14.6522V22H13.8522ZM8.81305 22V6.04758H7.21305V22H8.81305ZM8.01305 5.24758H1.69227V6.84758H8.01305V5.24758ZM2.49227 6.04758V0.930762H0.892275V6.04758H2.49227ZM1.69227 1.73076H20.173V0.130762H1.69227V1.73076ZM19.373 0.930762V6.04758H20.973V0.930762H19.373ZM20.173 5.24758H13.8522V6.84758H20.173V5.24758ZM13.0522 6.04758V22H14.6522V6.04758H13.0522ZM13.8522 21.2H8.01305V22.8H13.8522V21.2ZM24.843 22H24.043V22.8H24.843V22ZM24.843 0.930762V0.130762H24.043V0.930762H24.843ZM41.6683 3.21828L41.0967 3.77798L41.1031 3.78452L41.1097 3.79091L41.6683 3.21828ZM39.2002 14.6559L38.8871 13.9197L37.9885 14.3019L38.54 15.1077L39.2002 14.6559ZM44.2267 22V22.8H45.7437L44.8869 21.5482L44.2267 22ZM37.4846 22L36.8185 22.443L37.0559 22.8H37.4846V22ZM33.2406 15.619L33.9068 15.176L33.6693 14.819H33.2406V15.619ZM30.6822 15.619V14.819H29.8822V15.619H30.6822ZM30.6822 22V22.8H31.4822V22H30.6822ZM30.6822 11.044H29.8822V11.844H30.6822V11.044ZM30.6822 5.98738V5.18738H29.8822V5.98738H30.6822ZM25.643 22V0.930762H24.043V22H25.643ZM24.843 1.73076H34.8058V0.130762H24.843V1.73076ZM34.8058 1.73076C37.894 1.73076 39.882 2.53738 41.0967 3.77798L42.2399 2.65858C40.6254 1.00969 38.1587 0.130762 34.8058 0.130762V1.73076ZM41.1097 3.79091C42.1627 4.81827 42.7345 6.2228 42.7345 8.1244H44.3345C44.3345 5.87236 43.6421 4.0262 42.227 2.64565L41.1097 3.79091ZM42.7345 8.1244V8.1846H44.3345V8.1244H42.7345ZM42.7345 8.1846C42.7345 11.049 41.2445 12.9171 38.8871 13.9197L39.5133 15.3921C42.3932 14.1673 44.3345 11.7614 44.3345 8.1846H42.7345ZM38.54 15.1077L43.5666 22.4518L44.8869 21.5482L39.8604 14.204L38.54 15.1077ZM44.2267 21.2H37.4846V22.8H44.2267V21.2ZM38.1507 21.557L33.9068 15.176L32.5745 16.0621L36.8185 22.443L38.1507 21.557ZM33.2406 14.819H33.1804V16.419H33.2406V14.819ZM33.1804 14.819H30.6822V16.419H33.1804V14.819ZM29.8822 15.619V22H31.4822V15.619H29.8822ZM30.6822 21.2H24.843V22.8H30.6822V21.2ZM30.6822 11.844H34.5349V10.244H30.6822V11.844ZM34.5349 11.844C35.6471 11.844 36.6287 11.5751 37.3485 10.9922C38.089 10.3925 38.4652 9.52949 38.4652 8.54579H36.8652C36.8652 9.09713 36.6695 9.48322 36.3415 9.74884C35.9927 10.0313 35.4092 10.244 34.5349 10.244V11.844ZM38.4652 8.54579V8.48559H36.8652V8.54579H38.4652ZM38.4652 8.48559C38.4652 7.44253 38.0735 6.56882 37.3049 5.98046C36.569 5.41706 35.5817 5.18738 34.5048 5.18738V6.78738C35.3843 6.78738 35.9772 6.97908 36.3324 7.25093C36.6549 7.49781 36.8652 7.87321 36.8652 8.48559H38.4652ZM34.5048 5.18738H30.6822V6.78738H34.5048V5.18738ZM29.8822 5.98738V11.044H31.4822V5.98738H29.8822ZM53.8993 22H53.0993V22.8H53.8993V22ZM53.8993 14.1141H54.6993V13.8902L54.5831 13.6988L53.8993 14.1141ZM45.893 0.930762V0.130762H44.4712L45.2092 1.34603L45.893 0.930762ZM52.5449 0.930762L53.2415 0.537386L53.0118 0.130762H52.5449V0.930762ZM56.8791 8.60598L56.1825 8.99936L56.8767 10.2287L57.5745 9.00143L56.8791 8.60598ZM61.2434 0.930762V0.130762H60.7781L60.548 0.53532L61.2434 0.930762ZM67.7749 0.930762L68.4574 1.34811L69.2018 0.130762H67.7749V0.930762ZM59.7686 14.0238L59.0861 13.6064L58.9686 13.7986V14.0238H59.7686ZM59.7686 22V22.8H60.5686V22H59.7686ZM54.6993 22V14.1141H53.0993V22H54.6993ZM54.5831 13.6988L46.5768 0.515498L45.2092 1.34603L53.2155 14.5293L54.5831 13.6988ZM45.893 1.73076H52.5449V0.130762H45.893V1.73076ZM51.8483 1.32414L56.1825 8.99936L57.5757 8.21261L53.2415 0.537386L51.8483 1.32414ZM57.5745 9.00143L61.9389 1.3262L60.548 0.53532L56.1837 8.21054L57.5745 9.00143ZM61.2434 1.73076H67.7749V0.130762H61.2434V1.73076ZM67.0924 0.513412L59.0861 13.6064L60.4511 14.4411L68.4574 1.34811L67.0924 0.513412ZM58.9686 14.0238V22H60.5686V14.0238H58.9686ZM59.7686 21.2H53.8993V22.8H59.7686V21.2ZM71.6774 22H70.8774V22.8H71.6774V22ZM71.6774 0.930762V0.130762H70.8774V0.930762H71.6774ZM86.3356 10.9838L86.0162 10.2503L84.0936 11.0876L86.0853 11.7436L86.3356 10.9838ZM77.3661 9.32836H76.5661V10.1284H77.3661V9.32836ZM77.3661 5.62619V4.82619H76.5661V5.62619H77.3661ZM77.3661 17.3046H76.5661V18.1046H77.3661V17.3046ZM77.3661 13.4218V12.6218H76.5661V13.4218H77.3661ZM72.4774 22V0.930762H70.8774V22H72.4774ZM71.6774 1.73076H82.4829V0.130762H71.6774V1.73076ZM82.4829 1.73076C85.0051 1.73076 86.6334 2.35996 87.6661 3.39268L88.7975 2.26131C87.3621 0.825914 85.2581 0.130762 82.4829 0.130762V1.73076ZM87.6661 3.39268C88.3583 4.08481 88.7863 4.99473 88.7863 6.22817H90.3863C90.3863 4.57212 89.7909 3.25472 88.7975 2.26131L87.6661 3.39268ZM88.7863 6.22817V6.28837H90.3863V6.22817H88.7863ZM88.7863 6.28837C88.7863 7.34508 88.49 8.14393 88.0222 8.76359C87.5471 9.39295 86.86 9.88284 86.0162 10.2503L86.655 11.7173C87.6773 11.2721 88.6155 10.6333 89.2992 9.72759C89.9902 8.8122 90.3863 7.66967 90.3863 6.28837H88.7863ZM86.0853 11.7436C87.2935 12.1416 88.1909 12.6539 88.7867 13.33C89.3657 13.987 89.7193 14.8661 89.7193 16.1307H91.3193C91.3193 14.5359 90.8603 13.263 89.987 12.2721C89.1305 11.3002 87.9361 10.6687 86.5859 10.224L86.0853 11.7436ZM89.7193 16.1307V16.1909H91.3193V16.1307H89.7193ZM89.7193 16.1909C89.7193 17.7511 89.0961 18.9599 87.9433 19.8046C86.7606 20.6713 84.9537 21.2 82.5431 21.2V22.8C85.159 22.8 87.3402 22.2301 88.889 21.0952C90.4677 19.9383 91.3193 18.2425 91.3193 16.1909H89.7193ZM82.5431 21.2H71.6774V22.8H82.5431V21.2ZM77.3661 10.1284H81.0382V8.52836H77.3661V10.1284ZM81.0382 10.1284C81.9933 10.1284 82.8662 9.97054 83.5237 9.54448C84.2357 9.08312 84.6073 8.36328 84.6073 7.49232H83.0073C83.0073 7.85542 82.8822 8.0536 82.6536 8.20174C82.3705 8.38518 81.8589 8.52836 81.0382 8.52836V10.1284ZM84.6073 7.49232V7.43213H83.0073V7.49232H84.6073ZM84.6073 7.43213C84.6073 6.61829 84.2692 5.91243 83.5941 5.4433C82.9619 5.00398 82.1131 4.82619 81.1586 4.82619V6.42619C81.9498 6.42619 82.4253 6.57949 82.681 6.7572C82.8939 6.9051 83.0073 7.1022 83.0073 7.43213H84.6073ZM81.1586 4.82619H77.3661V6.42619H81.1586V4.82619ZM76.5661 5.62619V9.32836H78.1661V5.62619H76.5661ZM77.3661 18.1046H81.8809V16.5046H77.3661V18.1046ZM81.8809 18.1046C82.8549 18.1046 83.7367 17.9176 84.3986 17.4642C85.1006 16.9832 85.4801 16.2512 85.4801 15.3782H83.8801C83.8801 15.7393 83.748 15.9705 83.4944 16.1442C83.2006 16.3454 82.6828 16.5046 81.8809 16.5046V18.1046ZM85.4801 15.3782V15.318H83.8801V15.3782H85.4801ZM85.4801 15.318C85.4801 14.5062 85.1439 13.7791 84.4446 13.2869C83.7857 12.823 82.8827 12.6218 81.8207 12.6218V14.2218C82.7152 14.2218 83.2419 14.3969 83.5236 14.5952C83.7649 14.7651 83.8801 14.9861 83.8801 15.318H85.4801ZM81.8207 12.6218H77.3661V14.2218H81.8207V12.6218ZM76.5661 13.4218V17.3046H78.1661V13.4218H76.5661ZM95.3004 22H94.5004V22.8H95.3004V22ZM95.3004 0.930762V0.130762H94.5004V0.930762H95.3004ZM101.14 0.930762H101.94V0.130762H101.14V0.930762ZM101.14 16.8832H100.34V17.6832H101.14V16.8832ZM111.343 16.8832H112.143V16.0832H111.343V16.8832ZM111.343 22V22.8H112.143V22H111.343ZM96.1004 22V0.930762H94.5004V22H96.1004ZM95.3004 1.73076H101.14V0.130762H95.3004V1.73076ZM100.34 0.930762V16.8832H101.94V0.930762H100.34ZM101.14 17.6832H111.343V16.0832H101.14V17.6832ZM110.543 16.8832V22H112.143V16.8832H110.543ZM111.343 21.2H95.3004V22.8H111.343V21.2ZM22.0391 36.5795L22.6541 37.0912L23.1561 36.4878L22.5625 35.9744L22.0391 36.5795ZM18.6079 40.703L18.0933 41.3156L18.7087 41.8325L19.2228 41.2147L18.6079 40.703ZM17.2233 49.522L17.6617 50.1912L18.0233 49.9543V49.522H17.2233ZM17.2233 46.9636H18.0233V46.1636H17.2233V46.9636ZM13.0697 46.9636H12.2697V47.7636H13.0697V46.9636ZM13.0697 42.6895V41.8895H12.2697V42.6895H13.0697ZM22.7615 42.6895H23.5615V41.8895H22.7615V42.6895ZM22.7615 52.1707L23.2704 52.788L23.5615 52.548V52.1707H22.7615ZM13.6114 54.6214C7.44533 54.6214 2.94376 50.4197 2.94376 44.5256H1.34376C1.34376 51.3934 6.65444 56.2214 13.6114 56.2214V54.6214ZM2.94376 44.5256V44.4654H1.34376V44.5256H2.94376ZM2.94376 44.4654C2.94376 38.7854 7.38282 34.3094 13.491 34.3094V32.7094C6.53635 32.7094 1.34376 37.865 1.34376 44.4654H2.94376ZM13.491 34.3094C16.9962 34.3094 19.4301 35.3807 21.5158 37.1846L22.5625 35.9744C20.1935 33.9255 17.3903 32.7094 13.491 32.7094V34.3094ZM21.4242 36.0678L17.9929 40.1913L19.2228 41.2147L22.6541 37.0912L21.4242 36.0678ZM19.1224 40.0905C17.5106 38.7365 15.8297 37.9165 13.5211 37.9165V39.5165C15.3662 39.5165 16.6953 40.1412 18.0933 41.3156L19.1224 40.0905ZM13.5211 37.9165C9.98393 37.9165 7.33344 40.8906 7.33344 44.4955H8.93344C8.93344 41.6592 10.9784 39.5165 13.5211 39.5165V37.9165ZM7.33344 44.4955V44.5557H8.93344V44.4955H7.33344ZM7.33344 44.5557C7.33344 48.382 10.0529 51.1949 13.8522 51.1949V49.5949C10.9696 49.5949 8.93344 47.5318 8.93344 44.5557H7.33344ZM13.8522 51.1949C15.3847 51.1949 16.6301 50.8671 17.6617 50.1912L16.7849 48.8528C16.0708 49.3207 15.1491 49.5949 13.8522 49.5949V51.1949ZM18.0233 49.522V46.9636H16.4233V49.522H18.0233ZM17.2233 46.1636H13.0697V47.7636H17.2233V46.1636ZM13.8697 46.9636V42.6895H12.2697V46.9636H13.8697ZM13.0697 43.4895H22.7615V41.8895H13.0697V43.4895ZM21.9615 42.6895V52.1707H23.5615V42.6895H21.9615ZM22.2527 51.5534C20.1514 53.2855 17.2272 54.6214 13.6114 54.6214V56.2214C17.6408 56.2214 20.917 54.728 23.2704 52.788L22.2527 51.5534ZM26.4202 55L25.6833 54.6885L25.2135 55.8H26.4202V55ZM35.3897 33.7803V32.9803H34.8593L34.6528 33.4688L35.3897 33.7803ZM41.0181 33.7803L41.755 33.4688L41.5485 32.9803H41.0181V33.7803ZM49.9876 55V55.8H51.1943L50.7245 54.6885L49.9876 55ZM43.727 55L42.9863 55.3022L43.1894 55.8H43.727V55ZM42.192 51.2376L42.9327 50.9354L42.7296 50.4376H42.192V51.2376ZM34.0653 51.2376V50.4376H33.5237L33.3225 50.9405L34.0653 51.2376ZM32.5604 55V55.8H33.102L33.3031 55.2971L32.5604 55ZM35.7809 46.6927L35.0374 46.3975L34.6026 47.4927H35.7809V46.6927ZM40.5065 46.6927V47.4927H41.6793L41.2513 46.4008L40.5065 46.6927ZM38.1588 40.703L38.9036 40.4111L38.1635 38.5229L37.4152 40.4078L38.1588 40.703ZM27.1571 55.3115L36.1265 34.0917L34.6528 33.4688L25.6833 54.6885L27.1571 55.3115ZM35.3897 34.5803H41.0181V32.9803H35.3897V34.5803ZM40.2813 34.0917L49.2507 55.3115L50.7245 54.6885L41.755 33.4688L40.2813 34.0917ZM49.9876 54.2H43.727V55.8H49.9876V54.2ZM44.4678 54.6978L42.9327 50.9354L41.4513 51.5399L42.9863 55.3022L44.4678 54.6978ZM42.192 50.4376H34.0653V52.0376H42.192V50.4376ZM33.3225 50.9405L31.8176 54.7029L33.3031 55.2971L34.8081 51.5347L33.3225 50.9405ZM32.5604 54.2H26.4202V55.8H32.5604V54.2ZM35.7809 47.4927H40.5065V45.8927H35.7809V47.4927ZM41.2513 46.4008L38.9036 40.4111L37.4139 40.995L39.7616 46.9846L41.2513 46.4008ZM37.4152 40.4078L35.0374 46.3975L36.5245 46.9879L38.9023 40.9982L37.4152 40.4078ZM54.1389 55H53.3389V55.8H54.1389V55ZM54.1389 33.9308V33.1308H53.3389V33.9308H54.1389ZM60.3092 33.9308L60.9903 33.5111L60.7559 33.1308H60.3092V33.9308ZM65.3357 42.0876L64.6546 42.5073L65.3357 43.6125L66.0168 42.5073L65.3357 42.0876ZM70.3622 33.9308V33.1308H69.9155L69.6812 33.5111L70.3622 33.9308ZM76.5325 33.9308H77.3325V33.1308H76.5325V33.9308ZM76.5325 55V55.8H77.3325V55H76.5325ZM70.7234 55H69.9234V55.8H70.7234V55ZM70.7234 42.9002H71.5234V40.2129L70.0537 42.4627L70.7234 42.9002ZM65.3357 51.1473V51.9473H65.7687L66.0055 51.5849L65.3357 51.1473ZM65.2153 51.1473L64.5459 51.5854L64.7828 51.9473H65.2153V51.1473ZM59.8577 42.9604L60.5271 42.5224L59.0577 40.277V42.9604H59.8577ZM59.8577 55V55.8H60.6577V55H59.8577ZM54.9389 55V33.9308H53.3389V55H54.9389ZM54.1389 34.7308H60.3092V33.1308H54.1389V34.7308ZM59.6281 34.3505L64.6546 42.5073L66.0168 41.6679L60.9903 33.5111L59.6281 34.3505ZM66.0168 42.5073L71.0433 34.3505L69.6812 33.5111L64.6546 41.6679L66.0168 42.5073ZM70.3622 34.7308H76.5325V33.1308H70.3622V34.7308ZM75.7325 33.9308V55H77.3325V33.9308H75.7325ZM76.5325 54.2H70.7234V55.8H76.5325V54.2ZM71.5234 55V42.9002H69.9234V55H71.5234ZM70.0537 42.4627L64.666 50.7098L66.0055 51.5849L71.3932 43.3378L70.0537 42.4627ZM65.3357 50.3473H65.2153V51.9473H65.3357V50.3473ZM65.8847 50.7093L60.5271 42.5224L59.1883 43.3985L64.5459 51.5854L65.8847 50.7093ZM59.0577 42.9604V55H60.6577V42.9604H59.0577ZM59.8577 54.2H54.1389V55.8H59.8577V54.2ZM82.3766 55H81.5766V55.8H82.3766V55ZM82.3766 33.9308V33.1308H81.5766V33.9308H82.3766ZM99.3223 33.9308H100.122V33.1308H99.3223V33.9308ZM99.3223 38.8971V39.6971H100.122V38.8971H99.3223ZM88.1556 38.8971V38.0971H87.3556V38.8971H88.1556ZM88.1556 42.0876H87.3556V42.8876H88.1556V42.0876ZM98.2689 42.0876H99.0689V41.2876H98.2689V42.0876ZM98.2689 46.6927V47.4927H99.0689V46.6927H98.2689ZM88.1556 46.6927V45.8927H87.3556V46.6927H88.1556ZM88.1556 50.0337H87.3556V50.8337H88.1556V50.0337ZM99.4728 50.0337H100.273V49.2337H99.4728V50.0337ZM99.4728 55V55.8H100.273V55H99.4728ZM83.1766 55V33.9308H81.5766V55H83.1766ZM82.3766 34.7308H99.3223V33.1308H82.3766V34.7308ZM98.5223 33.9308V38.8971H100.122V33.9308H98.5223ZM99.3223 38.0971H88.1556V39.6971H99.3223V38.0971ZM87.3556 38.8971V42.0876H88.9556V38.8971H87.3556ZM88.1556 42.8876H98.2689V41.2876H88.1556V42.8876ZM97.4689 42.0876V46.6927H99.0689V42.0876H97.4689ZM98.2689 45.8927H88.1556V47.4927H98.2689V45.8927ZM87.3556 46.6927V50.0337H88.9556V46.6927H87.3556ZM88.1556 50.8337H99.4728V49.2337H88.1556V50.8337ZM98.6728 50.0337V55H100.273V50.0337H98.6728ZM99.4728 54.2H82.3766V55.8H99.4728V54.2ZM102.964 51.8697L102.351 51.3562L101.854 51.9495L102.43 52.4657L102.964 51.8697ZM106.215 47.987L106.713 47.3614L106.103 46.8746L105.601 47.4734L106.215 47.987ZM111.903 46.9937L112.084 46.2143L112.081 46.2137L111.903 46.9937ZM120.783 36.3688L121.436 36.8311L121.871 36.2163L121.283 35.7449L120.783 36.3688ZM117.863 40.4923L117.403 41.1467L118.055 41.6054L118.516 40.9546L117.863 40.4923ZM113.499 41.8769L113.322 42.6571L113.329 42.6586L113.499 41.8769ZM112.836 54.5612C109.265 54.5612 105.914 53.4376 103.498 51.2737L102.43 52.4657C105.191 54.9371 108.944 56.1612 112.836 56.1612V54.5612ZM103.577 52.3833L106.828 48.5005L105.601 47.4734L102.351 51.3562L103.577 52.3833ZM105.716 48.6125C107.917 50.3669 110.407 51.3153 113.047 51.3153V49.7153C110.812 49.7153 108.666 48.9179 106.713 47.3614L105.716 48.6125ZM113.047 51.3153C113.903 51.3153 114.672 51.1704 115.255 50.8141C115.882 50.4308 116.255 49.8199 116.255 49.0705H114.655C114.655 49.2241 114.606 49.3356 114.421 49.4489C114.191 49.5892 113.757 49.7153 113.047 49.7153V51.3153ZM116.255 49.0705V49.0103H114.655V49.0705H116.255ZM116.255 49.0103C116.255 48.6798 116.188 48.3326 115.984 48.0011C115.785 47.6783 115.496 47.4328 115.157 47.2336C114.509 46.8519 113.51 46.5445 112.084 46.2143L111.723 47.7731C113.157 48.1051 113.933 48.3695 114.346 48.6124C114.538 48.7254 114.6 48.8054 114.621 48.8391C114.636 48.8641 114.655 48.9044 114.655 49.0103H116.255ZM112.081 46.2137C109.833 45.7008 107.988 45.1544 106.704 44.2663C105.489 43.4268 104.757 42.2708 104.757 40.3719H103.157C103.157 42.8073 104.156 44.4505 105.794 45.5825C107.361 46.6658 109.489 47.2633 111.725 47.7736L112.081 46.2137ZM104.757 40.3719V40.3117H103.157V40.3719H104.757ZM104.757 40.3117C104.757 38.5811 105.436 37.1216 106.658 36.0828C107.889 35.0355 109.731 34.3696 112.114 34.3696V32.7696C109.441 32.7696 107.204 33.5183 105.621 34.8639C104.029 36.2179 103.157 38.1295 103.157 40.3117H104.757ZM112.114 34.3696C115.538 34.3696 118.154 35.2851 120.282 36.9927L121.283 35.7449C118.836 33.7803 115.853 32.7696 112.114 32.7696V34.3696ZM120.13 35.9065L117.21 40.03L118.516 40.9546L121.436 36.8311L120.13 35.9065ZM118.323 39.8379C116.291 38.4089 114.026 37.6155 111.964 37.6155V39.2155C113.633 39.2155 115.583 39.8669 117.403 41.1467L118.323 39.8379ZM111.964 37.6155C111.155 37.6155 110.449 37.7858 109.921 38.1548C109.369 38.5408 109.057 39.1184 109.057 39.77H110.657C110.657 39.669 110.69 39.5694 110.838 39.4663C111.01 39.3462 111.357 39.2155 111.964 39.2155V37.6155ZM109.057 39.77V39.8301H110.657V39.77H109.057ZM109.057 39.8301C109.057 40.175 109.123 40.5373 109.333 40.8806C109.539 41.2173 109.84 41.4655 110.189 41.6627C110.852 42.0377 111.876 42.3292 113.322 42.6571L113.676 41.0967C112.202 40.7624 111.405 40.5121 110.977 40.27C110.78 40.1588 110.718 40.0796 110.698 40.0457C110.681 40.0185 110.657 39.9668 110.657 39.8301H109.057ZM113.329 42.6586C115.732 43.181 117.552 43.8075 118.765 44.7147C119.919 45.5783 120.554 46.7171 120.554 48.4384H122.154C122.154 46.2168 121.285 44.6016 119.723 43.4335C118.219 42.309 116.112 41.6262 113.669 41.0951L113.329 42.6586ZM120.554 48.4384V48.4986H122.154V48.4384H120.554ZM120.554 48.4986C120.554 50.4181 119.807 51.8978 118.518 52.9163C117.208 53.9517 115.271 54.5612 112.836 54.5612V56.1612C115.518 56.1612 117.841 55.4915 119.51 54.1716C121.201 52.8349 122.154 50.8833 122.154 48.4986H120.554ZM126.301 55H125.501V55.8H126.301V55ZM126.301 33.9308V33.1308H125.501V33.9308H126.301ZM132.14 33.9308H132.94V33.1308H132.14V33.9308ZM132.14 41.8167H131.34V42.6167H132.14V41.8167ZM139.635 41.8167V42.6167H140.435V41.8167H139.635ZM139.635 33.9308V33.1308H138.835V33.9308H139.635ZM145.474 33.9308H146.274V33.1308H145.474V33.9308ZM145.474 55V55.8H146.274V55H145.474ZM139.635 55H138.835V55.8H139.635V55ZM139.635 46.9937H140.435V46.1937H139.635V46.9937ZM132.14 46.9937V46.1937H131.34V46.9937H132.14ZM132.14 55V55.8H132.94V55H132.14ZM127.101 55V33.9308H125.501V55H127.101ZM126.301 34.7308H132.14V33.1308H126.301V34.7308ZM131.34 33.9308V41.8167H132.94V33.9308H131.34ZM132.14 42.6167H139.635V41.0167H132.14V42.6167ZM140.435 41.8167V33.9308H138.835V41.8167H140.435ZM139.635 34.7308H145.474V33.1308H139.635V34.7308ZM144.674 33.9308V55H146.274V33.9308H144.674ZM145.474 54.2H139.635V55.8H145.474V54.2ZM140.435 55V46.9937H138.835V55H140.435ZM139.635 46.1937H132.14V47.7937H139.635V46.1937ZM131.34 46.9937V55H132.94V46.9937H131.34ZM132.14 54.2H126.301V55.8H132.14V54.2ZM161.9 54.6214C155.822 54.6214 151.383 50.1152 151.383 44.5256H149.783C149.783 51.0357 154.976 56.2214 161.9 56.2214V54.6214ZM151.383 44.5256V44.4654H149.783V44.5256H151.383ZM151.383 44.4654C151.383 38.8756 155.882 34.3094 161.961 34.3094V32.7094C155.036 32.7094 149.783 37.9554 149.783 44.4654H151.383ZM161.961 34.3094C168.039 34.3094 172.478 38.8155 172.478 44.4052H174.078C174.078 37.8951 168.885 32.7094 161.961 32.7094V34.3094ZM172.478 44.4052V44.4654H174.078V44.4052H172.478ZM172.478 44.4654C172.478 50.0552 167.978 54.6214 161.9 54.6214V56.2214C168.825 56.2214 174.078 50.9754 174.078 44.4654H172.478ZM161.961 50.9541C165.691 50.9541 168.118 47.9365 168.118 44.5256H166.518C166.518 47.1946 164.672 49.3541 161.961 49.3541V50.9541ZM168.118 44.5256V44.4654H166.518V44.5256H168.118ZM168.118 44.4654C168.118 41.0533 165.629 37.9767 161.9 37.9767V39.5767C164.612 39.5767 166.518 41.7974 166.518 44.4654H168.118ZM161.9 37.9767C158.197 37.9767 155.773 40.9974 155.773 44.4052H157.373C157.373 41.733 159.222 39.5767 161.9 39.5767V37.9767ZM155.773 44.4052V44.4654H157.373V44.4052H155.773ZM155.773 44.4654C155.773 47.8743 158.259 50.9541 161.961 50.9541V49.3541C159.281 49.3541 157.373 47.1364 157.373 44.4654H155.773ZM182.85 55.1505L182.09 55.4025L182.272 55.9505H182.85V55.1505ZM175.806 33.9308V33.1308H174.698L175.047 34.1828L175.806 33.9308ZM181.977 33.9308L182.743 33.7L182.571 33.1308H181.977V33.9308ZM185.649 46.1208L184.883 46.3516L185.612 48.7726L186.408 46.3727L185.649 46.1208ZM189.712 33.8706V33.0706H189.135L188.953 33.6187L189.712 33.8706ZM194.739 33.8706L195.498 33.6187L195.316 33.0706H194.739V33.8706ZM198.802 46.1208L198.043 46.3727L198.839 48.7726L199.568 46.3516L198.802 46.1208ZM202.474 33.9308V33.1308H201.88L201.708 33.7L202.474 33.9308ZM208.524 33.9308L209.283 34.1828L209.632 33.1308H208.524V33.9308ZM201.481 55.1505V55.9505H202.058L202.24 55.4025L201.481 55.1505ZM196.394 55.1505L195.639 55.4147L195.826 55.9505H196.394V55.1505ZM192.15 43.0206L192.905 42.7564L192.147 40.5905L191.394 42.7581L192.15 43.0206ZM187.936 55.1505V55.9505H188.505L188.692 55.413L187.936 55.1505ZM183.609 54.8985L176.566 33.6787L175.047 34.1828L182.09 55.4025L183.609 54.8985ZM175.806 34.7308H181.977V33.1308H175.806V34.7308ZM181.211 34.1615L184.883 46.3516L186.415 45.8901L182.743 33.7L181.211 34.1615ZM186.408 46.3727L190.471 34.1224L188.953 33.6187L184.889 45.869L186.408 46.3727ZM189.712 34.6706H194.739V33.0706H189.712V34.6706ZM193.979 34.1224L198.043 46.3727L199.561 45.869L195.498 33.6187L193.979 34.1224ZM199.568 46.3516L203.24 34.1615L201.708 33.7L198.036 45.8901L199.568 46.3516ZM202.474 34.7308H208.524V33.1308H202.474V34.7308ZM207.765 33.6787L200.722 54.8985L202.24 55.4025L209.283 34.1828L207.765 33.6787ZM201.481 54.3505H196.394V55.9505H201.481V54.3505ZM197.149 54.8863L192.905 42.7564L191.395 43.2848L195.639 55.4147L197.149 54.8863ZM191.394 42.7581L187.181 54.888L188.692 55.413L192.906 43.2832L191.394 42.7581ZM187.936 54.3505H182.85V55.9505H187.936V54.3505Z" fill="white" fill-opacity="0.2" mask="url(#path-1-outside-1_51_23)"/>
</svg>
