<svg width="179" height="25" viewBox="0 0 179 25" fill="none" xmlns="http://www.w3.org/2000/svg">
<mask id="path-1-outside-1_19_238" maskUnits="userSpaceOnUse" x="0" y="0" width="179" height="25" fill="black">
<rect fill="white" width="179" height="25"/>
<path d="M21.12 23.63L18.81 21.56C17.01 22.73 14.82 23.42 12.42 23.42C5.94 23.42 1.14 18.59 1.14 12.56V12.5C1.14 6.47 6 1.58 12.48 1.58C18.96 1.58 23.76 6.41 23.76 12.44V12.5C23.76 14.72 23.1 16.82 21.9 18.53L24.06 20.36L21.12 23.63ZM12.48 18.26C13.26 18.26 13.98 18.11 14.61 17.87L11.7 15.38L14.64 12.08L17.49 14.66C17.73 14.03 17.85 13.34 17.85 12.62V12.56C17.85 9.5 15.66 6.83 12.42 6.83C9.24 6.83 7.11 9.47 7.11 12.5V12.56C7.11 15.59 9.27 18.26 12.48 18.26ZM38.3416 23.39C32.3716 23.39 28.6216 20.36 28.6216 13.79V2H34.5316V13.67C34.5316 16.7 36.0616 18.14 38.4016 18.14C40.7416 18.14 42.2716 16.76 42.2716 13.82V2H48.1816V13.64C48.1816 20.42 44.3116 23.39 38.3416 23.39ZM53.726 23V2H70.616V6.95H59.486V10.13H69.566V14.72H59.486V18.05H70.766V23H53.726ZM84.0858 23.36C80.3658 23.36 76.8258 22.19 74.2458 19.88L77.4858 16.01C79.5558 17.66 81.8658 18.53 84.2958 18.53C85.8558 18.53 86.6958 17.99 86.6958 17.09V17.03C86.6958 16.16 86.0058 15.68 83.1558 15.02C78.6858 14 75.2358 12.74 75.2358 8.42V8.36C75.2358 4.46 78.3258 1.64 83.3658 1.64C86.9358 1.64 89.7258 2.6 92.0058 4.43L89.0958 8.54C87.1758 7.19 85.0758 6.47 83.2158 6.47C81.8058 6.47 81.1158 7.07 81.1158 7.82V7.88C81.1158 8.84 81.8358 9.26 84.7458 9.92C89.5758 10.97 92.5758 12.53 92.5758 16.46V16.52C92.5758 20.81 89.1858 23.36 84.0858 23.36ZM102.05 23V7.1H95.7502V2H114.17V7.1H107.87V23H102.05ZM118.945 23V2H124.795V23H118.945ZM141.299 23.42C134.819 23.42 130.019 18.59 130.019 12.56V12.5C130.019 6.47 134.879 1.58 141.359 1.58C147.839 1.58 152.639 6.41 152.639 12.44V12.5C152.639 18.53 147.779 23.42 141.299 23.42ZM141.359 18.17C144.569 18.17 146.699 15.59 146.699 12.56V12.5C146.699 9.47 144.509 6.83 141.299 6.83C138.119 6.83 135.989 9.41 135.989 12.44V12.5C135.989 15.53 138.179 18.17 141.359 18.17ZM157.771 23V2H163.201L171.841 13.1V2H177.601V23H172.501L163.531 11.48V23H157.771Z"/>
</mask>
<path d="M21.12 23.63L20.5861 24.2258L21.1809 24.7588L21.7149 24.1649L21.12 23.63ZM18.81 21.56L19.3439 20.9642L18.8877 20.5554L18.374 20.8892L18.81 21.56ZM21.9 18.53L21.2452 18.0705L20.8256 18.6683L21.3829 19.1404L21.9 18.53ZM24.06 20.36L24.6549 20.8949L25.2058 20.2822L24.5771 19.7496L24.06 20.36ZM14.61 17.87L14.8948 18.6176L16.1537 18.138L15.1301 17.2622L14.61 17.87ZM11.7 15.38L11.1027 14.8478L10.5598 15.4572L11.1799 15.9878L11.7 15.38ZM14.64 12.08L15.1769 11.4869L14.5791 10.9457L14.0427 11.5478L14.64 12.08ZM17.49 14.66L16.9531 15.2531L17.8209 16.0386L18.2376 14.9448L17.49 14.66ZM21.6539 23.0342L19.3439 20.9642L18.2761 22.1558L20.5861 24.2258L21.6539 23.0342ZM18.374 20.8892C16.7031 21.9753 14.6644 22.62 12.42 22.62V24.22C14.9756 24.22 17.3169 23.4847 19.246 22.2308L18.374 20.8892ZM12.42 22.62C6.3632 22.62 1.94 18.1298 1.94 12.56H0.34C0.34 19.0502 5.5168 24.22 12.42 24.22V22.62ZM1.94 12.56V12.5H0.34V12.56H1.94ZM1.94 12.5C1.94 6.93009 6.42334 2.38 12.48 2.38V0.779999C5.57666 0.779999 0.34 6.00991 0.34 12.5H1.94ZM12.48 2.38C18.5368 2.38 22.96 6.87023 22.96 12.44H24.56C24.56 5.94977 19.3832 0.779999 12.48 0.779999V2.38ZM22.96 12.44V12.5H24.56V12.44H22.96ZM22.96 12.5C22.96 14.5616 22.3473 16.5 21.2452 18.0705L22.5548 18.9895C23.8527 17.14 24.56 14.8784 24.56 12.5H22.96ZM21.3829 19.1404L23.5429 20.9704L24.5771 19.7496L22.4171 17.9196L21.3829 19.1404ZM23.4651 19.8251L20.5251 23.0951L21.7149 24.1649L24.6549 20.8949L23.4651 19.8251ZM12.48 19.06C13.363 19.06 14.1793 18.8902 14.8948 18.6176L14.3252 17.1224C13.7807 17.3298 13.157 17.46 12.48 17.46V19.06ZM15.1301 17.2622L12.2201 14.7722L11.1799 15.9878L14.0899 18.4778L15.1301 17.2622ZM12.2973 15.9122L15.2373 12.6122L14.0427 11.5478L11.1027 14.8478L12.2973 15.9122ZM14.1031 12.6731L16.9531 15.2531L18.0269 14.0669L15.1769 11.4869L14.1031 12.6731ZM18.2376 14.9448C18.5152 14.216 18.65 13.4285 18.65 12.62H17.05C17.05 13.2515 16.9448 13.844 16.7424 14.3752L18.2376 14.9448ZM18.65 12.62V12.56H17.05V12.62H18.65ZM18.65 12.56C18.65 9.13332 16.1734 6.03 12.42 6.03V7.63C15.1466 7.63 17.05 9.86668 17.05 12.56H18.65ZM12.42 6.03C8.71727 6.03 6.31 9.11367 6.31 12.5H7.91C7.91 9.82633 9.76273 7.63 12.42 7.63V6.03ZM6.31 12.5V12.56H7.91V12.5H6.31ZM6.31 12.56C6.31 15.9501 8.75069 19.06 12.48 19.06V17.46C9.78931 17.46 7.91 15.2299 7.91 12.56H6.31ZM28.6216 2V1.2H27.8216V2H28.6216ZM34.5316 2H35.3316V1.2H34.5316V2ZM42.2716 2V1.2H41.4716V2H42.2716ZM48.1816 2H48.9816V1.2H48.1816V2ZM38.3416 22.59C35.4824 22.59 33.2773 21.8646 31.7901 20.4702C30.312 19.0842 29.4216 16.9231 29.4216 13.79H27.8216C27.8216 17.2269 28.8063 19.8658 30.6957 21.6373C32.576 23.4004 35.2309 24.19 38.3416 24.19V22.59ZM29.4216 13.79V2H27.8216V13.79H29.4216ZM28.6216 2.8H34.5316V1.2H28.6216V2.8ZM33.7316 2V13.67H35.3316V2H33.7316ZM33.7316 13.67C33.7316 15.3111 34.1463 16.6481 34.9985 17.5809C35.86 18.5237 37.0645 18.94 38.4016 18.94V17.34C37.3987 17.34 36.6682 17.0363 36.1797 16.5016C35.682 15.9569 35.3316 15.0589 35.3316 13.67H33.7316ZM38.4016 18.94C39.7287 18.94 40.9306 18.545 41.7949 17.6327C42.6538 16.7261 43.0716 15.422 43.0716 13.82H41.4716C41.4716 15.158 41.1245 16.0139 40.6334 16.5323C40.1477 17.045 39.4146 17.34 38.4016 17.34V18.94ZM43.0716 13.82V2H41.4716V13.82H43.0716ZM42.2716 2.8H48.1816V1.2H42.2716V2.8ZM47.3816 2V13.64H48.9816V2H47.3816ZM47.3816 13.64C47.3816 16.8778 46.4616 19.0744 44.9563 20.471C43.4402 21.8776 41.2048 22.59 38.3416 22.59V24.19C41.4484 24.19 44.1331 23.4174 46.0445 21.644C47.9667 19.8606 48.9816 17.1822 48.9816 13.64H47.3816ZM53.726 23H52.926V23.8H53.726V23ZM53.726 2V1.2H52.926V2H53.726ZM70.616 2H71.416V1.2H70.616V2ZM70.616 6.95V7.75H71.416V6.95H70.616ZM59.486 6.95V6.15H58.686V6.95H59.486ZM59.486 10.13H58.686V10.93H59.486V10.13ZM69.566 10.13H70.366V9.33H69.566V10.13ZM69.566 14.72V15.52H70.366V14.72H69.566ZM59.486 14.72V13.92H58.686V14.72H59.486ZM59.486 18.05H58.686V18.85H59.486V18.05ZM70.766 18.05H71.566V17.25H70.766V18.05ZM70.766 23V23.8H71.566V23H70.766ZM54.526 23V2H52.926V23H54.526ZM53.726 2.8H70.616V1.2H53.726V2.8ZM69.816 2V6.95H71.416V2H69.816ZM70.616 6.15H59.486V7.75H70.616V6.15ZM58.686 6.95V10.13H60.286V6.95H58.686ZM59.486 10.93H69.566V9.33H59.486V10.93ZM68.766 10.13V14.72H70.366V10.13H68.766ZM69.566 13.92H59.486V15.52H69.566V13.92ZM58.686 14.72V18.05H60.286V14.72H58.686ZM59.486 18.85H70.766V17.25H59.486V18.85ZM69.966 18.05V23H71.566V18.05H69.966ZM70.766 22.2H53.726V23.8H70.766V22.2ZM74.2458 19.88L73.6324 19.3665L73.1356 19.9598L73.7121 20.476L74.2458 19.88ZM77.4858 16.01L77.9844 15.3844L77.3737 14.8976L76.8724 15.4965L77.4858 16.01ZM83.1558 15.02L83.3363 14.2406L83.3338 14.24L83.1558 15.02ZM92.0058 4.43L92.6587 4.89228L93.0939 4.27757L92.5065 3.80611L92.0058 4.43ZM89.0958 8.54L88.6356 9.19442L89.2879 9.65306L89.7487 9.00228L89.0958 8.54ZM84.7458 9.92L84.5688 10.7002L84.5758 10.7017L84.7458 9.92ZM84.0858 22.56C80.5263 22.56 77.1877 21.4402 74.7794 19.284L73.7121 20.476C76.4639 22.9398 80.2053 24.16 84.0858 24.16V22.56ZM74.8592 20.3935L78.0992 16.5235L76.8724 15.4965L73.6324 19.3665L74.8592 20.3935ZM76.9871 16.6356C79.1812 18.3845 81.6633 19.33 84.2958 19.33V17.73C82.0683 17.73 79.9304 16.9355 77.9844 15.3844L76.9871 16.6356ZM84.2958 19.33C85.1486 19.33 85.9162 19.1856 86.4979 18.8301C87.1239 18.4476 87.4958 17.8379 87.4958 17.09H85.8958C85.8958 17.2421 85.8477 17.3524 85.6636 17.4649C85.4353 17.6044 85.0029 17.73 84.2958 17.73V19.33ZM87.4958 17.09V17.03H85.8958V17.09H87.4958ZM87.4958 17.03C87.4958 16.7002 87.4284 16.3536 87.225 16.0227C87.0268 15.7005 86.738 15.4556 86.4004 15.2568C85.7537 14.8762 84.7573 14.5697 83.3363 14.2406L82.9753 15.7994C84.4043 16.1303 85.1778 16.3938 85.5887 16.6357C85.7798 16.7482 85.8416 16.8276 85.8619 16.8607C85.8769 16.8851 85.8958 16.9248 85.8958 17.03H87.4958ZM83.3338 14.24C81.093 13.7287 79.2545 13.1843 77.9745 12.2994C76.7647 11.4631 76.0358 10.3117 76.0358 8.42H74.4358C74.4358 10.8483 75.4319 12.4869 77.0646 13.6156C78.6271 14.6957 80.7485 15.2913 82.9778 15.8L83.3338 14.24ZM76.0358 8.42V8.36H74.4358V8.42H76.0358ZM76.0358 8.36C76.0358 6.63578 76.7119 5.18182 77.929 4.14697C79.1562 3.10356 80.9911 2.44 83.3658 2.44V0.84C80.7005 0.84 78.4704 1.58644 76.8926 2.92803C75.3047 4.27818 74.4358 6.18422 74.4358 8.36H76.0358ZM83.3658 2.44C86.7783 2.44 89.3851 3.3524 91.505 5.05389L92.5065 3.80611C90.0664 1.8476 87.0932 0.84 83.3658 0.84V2.44ZM91.3529 3.96772L88.4429 8.07772L89.7487 9.00228L92.6587 4.89228L91.3529 3.96772ZM89.5559 7.88558C87.5299 6.46101 85.2724 5.67 83.2158 5.67V7.27C84.8792 7.27 86.8217 7.91899 88.6356 9.19442L89.5559 7.88558ZM83.2158 5.67C82.4099 5.67 81.7056 5.83978 81.1787 6.20803C80.6276 6.59321 80.3158 7.16969 80.3158 7.82H81.9158C81.9158 7.7203 81.9489 7.62178 82.0953 7.51947C82.2659 7.40022 82.6117 7.27 83.2158 7.27V5.67ZM80.3158 7.82V7.88H81.9158V7.82H80.3158ZM80.3158 7.88C80.3158 8.2241 80.3817 8.58565 80.5913 8.92838C80.7969 9.26447 81.0978 9.51212 81.4457 9.70886C82.107 10.0828 83.128 10.3734 84.5688 10.7002L84.9227 9.13981C83.4536 8.80661 82.6596 8.55719 82.2333 8.31614C82.0375 8.20538 81.9766 8.12678 81.9562 8.0935C81.9399 8.06684 81.9158 8.0159 81.9158 7.88H80.3158ZM84.5758 10.7017C86.9708 11.2224 88.7844 11.8468 89.9929 12.7506C91.1431 13.6109 91.7758 14.7451 91.7758 16.46H93.3758C93.3758 14.2449 92.5085 12.6341 90.9512 11.4694C89.4522 10.3482 87.3507 9.6676 84.9157 9.13826L84.5758 10.7017ZM91.7758 16.46V16.52H93.3758V16.46H91.7758ZM91.7758 16.52C91.7758 18.4324 91.031 19.9064 89.7472 20.9211C88.4422 21.9526 86.5122 22.56 84.0858 22.56V24.16C86.7593 24.16 89.0744 23.4924 90.7394 22.1764C92.4256 20.8436 93.3758 18.8976 93.3758 16.52H91.7758ZM102.05 23H101.25V23.8H102.05V23ZM102.05 7.1H102.85V6.3H102.05V7.1ZM95.7502 7.1H94.9502V7.9H95.7502V7.1ZM95.7502 2V1.2H94.9502V2H95.7502ZM114.17 2H114.97V1.2H114.17V2ZM114.17 7.1V7.9H114.97V7.1H114.17ZM107.87 7.1V6.3H107.07V7.1H107.87ZM107.87 23V23.8H108.67V23H107.87ZM102.85 23V7.1H101.25V23H102.85ZM102.05 6.3H95.7502V7.9H102.05V6.3ZM96.5502 7.1V2H94.9502V7.1H96.5502ZM95.7502 2.8H114.17V1.2H95.7502V2.8ZM113.37 2V7.1H114.97V2H113.37ZM114.17 6.3H107.87V7.9H114.17V6.3ZM107.07 7.1V23H108.67V7.1H107.07ZM107.87 22.2H102.05V23.8H107.87V22.2ZM118.945 23H118.145V23.8H118.945V23ZM118.945 2V1.2H118.145V2H118.945ZM124.795 2H125.595V1.2H124.795V2ZM124.795 23V23.8H125.595V23H124.795ZM119.745 23V2H118.145V23H119.745ZM118.945 2.8H124.795V1.2H118.945V2.8ZM123.995 2V23H125.595V2H123.995ZM124.795 22.2H118.945V23.8H124.795V22.2ZM141.299 22.62C135.243 22.62 130.819 18.1298 130.819 12.56H129.219C129.219 19.0502 134.396 24.22 141.299 24.22V22.62ZM130.819 12.56V12.5H129.219V12.56H130.819ZM130.819 12.5C130.819 6.93009 135.303 2.38 141.359 2.38V0.779999C134.456 0.779999 129.219 6.00991 129.219 12.5H130.819ZM141.359 2.38C147.416 2.38 151.839 6.87023 151.839 12.44H153.439C153.439 5.94977 148.263 0.779999 141.359 0.779999V2.38ZM151.839 12.44V12.5H153.439V12.44H151.839ZM151.839 12.5C151.839 18.0699 147.356 22.62 141.299 22.62V24.22C148.203 24.22 153.439 18.9901 153.439 12.5H151.839ZM141.359 18.97C145.079 18.97 147.499 15.961 147.499 12.56H145.899C145.899 15.219 144.06 17.37 141.359 17.37V18.97ZM147.499 12.56V12.5H145.899V12.56H147.499ZM147.499 12.5C147.499 9.09795 145.018 6.03 141.299 6.03V7.63C144.001 7.63 145.899 9.84204 145.899 12.5H147.499ZM141.299 6.03C137.607 6.03 135.189 9.04221 135.189 12.44H136.789C136.789 9.77779 138.632 7.63 141.299 7.63V6.03ZM135.189 12.44V12.5H136.789V12.44H135.189ZM135.189 12.5C135.189 15.8989 137.668 18.97 141.359 18.97V17.37C138.691 17.37 136.789 15.1611 136.789 12.5H135.189ZM157.771 23H156.971V23.8H157.771V23ZM157.771 2V1.2H156.971V2H157.771ZM163.201 2L163.832 1.50861L163.592 1.2H163.201V2ZM171.841 13.1L171.21 13.5914L172.641 15.4302V13.1H171.841ZM171.841 2V1.2H171.041V2H171.841ZM177.601 2H178.401V1.2H177.601V2ZM177.601 23V23.8H178.401V23H177.601ZM172.501 23L171.87 23.4915L172.11 23.8H172.501V23ZM163.531 11.48L164.162 10.9885L162.731 9.15042V11.48H163.531ZM163.531 23V23.8H164.331V23H163.531ZM158.571 23V2H156.971V23H158.571ZM157.771 2.8H163.201V1.2H157.771V2.8ZM162.57 2.49139L171.21 13.5914L172.472 12.6086L163.832 1.50861L162.57 2.49139ZM172.641 13.1V2H171.041V13.1H172.641ZM171.841 2.8H177.601V1.2H171.841V2.8ZM176.801 2V23H178.401V2H176.801ZM177.601 22.2H172.501V23.8H177.601V22.2ZM173.132 22.5085L164.162 10.9885L162.9 11.9715L171.87 23.4915L173.132 22.5085ZM162.731 11.48V23H164.331V11.48H162.731ZM163.531 22.2H157.771V23.8H163.531V22.2Z" fill="white" fill-opacity="0.2" mask="url(#path-1-outside-1_19_238)"/>
</svg>
